**ABCDEFGHIJKLMNOPQRSTUVWXYZabcdefghijklmnopqrstuvwxyz**************************
**PARASOLID !"#$%&'()*+,-./:;<=>?@[\]^_`{|}~0123456789**************************
**PART1;
MC=OTTOH-DESKTOP;
MC_MODEL=unknown;
MC_ID=unknown;
OS=Windows NT;
OS_RELEASE=6.2;
FRU=Unigraphics Solutions;
APPL=SolidEdge;
SITE=Huntsville, AL;
USER=ottoh
FORMAT=text;
GUISE=transmit;
KEY=D:\Programming\CAD\HRG\HRGCADs\Doubler acoustic isolation243\Longwall243;
FILE=D:\Programming\CAD\HRG\HRGCADs\Doubler acoustic isolation243\Longwall243.x_t;
DATE=Wed, Feb 14 24;
**PART2;
SCH=SCH_3600142_36001;
USFLD_SIZE=0;
**PART3;
**END_OF_HEADER*****************************************************************
T51 : TRANSMIT FILE created by modeller version 360014223 SCH_3600142_36001_1300
6231 0 12 36 CCCI7 lattice222 0 CCCI4 mesh1006 0 I8 polyline1008 0 CCCCCCCDI5 ow
ner1040 0 CCCI16 boundary_lattice222 0 CCCI13 boundary_mesh1006 0 I17 boundary_p
olyline1008 0 CCCA16 index_map_offset0 0 1 dA9 index_map82 0 A17 node_id_index_m
ap82 0 A20 schema_embedding_map82 0 A5 child12 0 A14 lowest_node_id0 0 1 dA16 me
sh_offset_data206 0 Z1 1742 2 3 0 0 0 0 0 0 0 1e3 1e-8 0 0 0 1 0 1 1 4 0 5 6 7 0
 0 8 9 10 0 0 0 0 0 0 0 81 255 3 2 1621 11 1 12 0 12 0 13 14 15 70 11 CI9 list_t
ype0 0 1 uI10 notransmit0 0 1 lCCCDCCDI12 finger_index0 0 1 dI12 finger_block101
2 0 CZ3 0 4 T1 0 0 16 20 1 16 16 13 255 4 1141 0 1 0 17 0 0 18 0 51 255 5 1125 0
 19 20 0 0 --.2425 .506622534299358 .077 0 -1 0 .0031 0 0 -1 31 255 6 1600 0 9 2
1 0 0 +-.15 -37606765712409e-30 .088 0 0 1 0 -1 0 .0024585 29 255 7 399 0 10 22
 0 .234 -.0075 .1 19 9 CCCCCCI5 frame230 0 CA5 owner12 0 Z8 1163 0 1 18 0 23 0 V
0 16 255 9 1597 24 ?25 0 26 6 0 0 1 18 255 10 397 0 27 0 28 7 ?1 17 255 27 0 29
 30 31 10 32 33 0 34 +18 28 133 0 35 10 36 22 ?1 17 35 0 37 38 39 28 40 41 0 42
 +18 36 17 0 43 28 44 45 ?1 29 22 135 0 28 46 7 -.25 -.00323333333333334 .1 29 4
6 58 0 47 48 22 -.25 .0075 0 18 47 49 0 49 44 50 46 ?1 29 48 59 0 50 45 46 .25 .
0075 0 18 50 50 0 51 47 52 48 ?1 29 45 20 0 36 53 48 -.25 .0075 .1 29 53 14 0 44
 54 45 .25 .0075 .1 18 44 11 0 55 36 47 53 ?1 29 54 331 0 52 56 53 -.234 -.0075
 0 18 52 243 0 57 50 58 54 ?1 29 56 332 0 58 59 54 -.25 -.003233333333333335 0 1
8 58 236 0 38 52 60 56 ?1 29 59 333 0 60 61 56 -.234 -.00323333333333334 0 18 60
 245 0 62 58 63 59 ?1 29 61 335 0 63 64 59 -.234 -.00323333333333334 .1 18 63 24
6 0 39 60 65 61 ?1 29 64 336 0 65 66 61 -.234 -.0075 .1 18 65 244 0 67 63 68 64
 ?1 29 66 595 0 68 69 64 .25 -.0035 0 18 68 507 0 70 65 71 66 ?1 29 69 596 0 71
 72 66 .234 -.0075 0 18 71 500 0 30 68 73 69 ?1 29 72 597 0 73 74 69 .234 -.0035
 0 18 73 509 0 75 71 76 72 ?1 29 74 599 0 76 77 72 .234 -.0035 .1 18 76 510 0 31
 73 78 74 ?1 29 77 600 0 78 0 74 .25 -.0035 .1 18 78 508 0 79 76 0 77 ?1 17 79 0
 80 81 70 78 82 83 0 84 +15 255 80 553 0 79 85 0 17 81 0 80 86 79 76 84 87 0 32
 +17 70 0 80 79 86 68 88 89 0 82 -17 82 0 90 51 91 68 79 83 0 92 -16 83 475 0 ?7
9 93 94 95 0 0 1 17 84 0 96 55 32 78 81 87 0 91 -15 96 408 0 84 97 0 17 55 0 96
 43 84 44 91 98 0 99 +17 32 0 96 84 100 76 27 33 0 0 -16 87 492 101 ?81 33 102 1
03 0 0 1 17 91 0 90 82 99 78 55 98 0 0 -15 90 68 0 91 104 0 17 99 0 90 91 51 44
 105 106 0 107 -16 98 401 0 ?55 108 109 110 0 0 1 16 108 18 0 ?43 111 98 112 0 0
 1 16 109 137 0 ?100 98 113 114 0 0 1 30 255 110 13 0 98 114 112 0 +.25 -.0075 .
1 0 1 0 30 114 7 0 109 115 110 0 +-.25 -.0075 .1 1 0 0 30 112 19 0 108 110 116 0
 +.25 .0075 .1 -1 0 0 30 116 24 0 113 112 117 0 +-.25 .0075 .1 0 -1 0 16 113 23
 0 ?118 109 119 116 0 0 1 30 117 57 0 120 116 121 0 +-.25 -.0075 0 1 0 0 16 120
 120 122 ?123 124 125 117 0 0 1 30 121 56 0 124 117 126 0 +.25 -.0075 0 0 1 0 16
 124 384 127 ?51 119 120 121 0 0 1 30 126 55 0 119 121 128 0 +.25 .0075 0 -1 0 0
 16 119 37 129 ?49 113 124 126 0 0 1 30 128 54 0 125 126 130 0 +-.25 .0075 0 0 -
1 0 16 125 46 131 ?132 120 133 128 0 0 1 30 130 78 0 111 128 134 0 +-.25 .0075 .
1 0 0 -1 16 111 62 0 ?135 106 108 130 0 0 1 30 134 79 0 106 130 136 0 +.25 .0075
 .1 0 0 -1 16 106 63 0 ?105 137 111 134 0 0 1 30 136 161 0 138 134 139 0 +-.234
 0 0 0 1 0 16 138 127 0 ?140 141 137 136 0 0 1 30 139 162 0 137 136 142 0 +-3739
292825994485e-34 -.003233333333333365 0 -1 115648231731787e-30 0 16 137 124 0 ?1
43 138 106 139 0 0 1 30 142 425 0 89 139 144 0 +189735380184964e-33 -.0035 0 -1
 -542101086242752e-31 0 16 89 391 0 ?88 145 141 142 0 0 1 30 144 426 0 141 142 1
46 0 +.234 0 0 0 -1 0 16 141 388 0 ?147 89 138 144 0 0 1 31 146 784 0 148 144 14
9 0 +.2425 .001499999999999946 .023 0 -1 0 0 0 -1 .0031 16 148 810 0 ?150 151 15
2 146 0 0 1 31 149 791 0 151 146 153 0 +.2425 .001499999999999946 .077 0 -1 0 0
 0 -1 .0031 16 151 846 0 ?154 155 148 149 0 0 1 31 153 936 0 145 149 156 0 --.24
25 -.00323333333333331 .077 115648231731787e-30 1 0 -1 115648231731787e-30 0 .00
31 16 145 933 0 ?157 158 89 153 0 0 1 31 156 945 0 158 153 159 0 --.2425 -.00323
333333333331 .023 115648231731787e-30 1 0 -1 115648231731787e-30 0 .0031 16 158
 942 0 ?160 161 145 156 0 0 1 31 159 954 0 161 156 162 0 --.2425 .0075 .077 0 -1
 0 0 0 -1 .0052 16 161 951 163 ?164 165 158 159 0 0 1 31 162 963 0 165 159 166 0
 --.2425 .0075 .023 0 -1 0 0 0 -1 .0052 16 165 960 167 ?168 169 161 162 0 0 1 31
 166 1138 0 170 162 171 0 +-.2425 .001499999999999946 .023 0 1 0 0 0 -1 .0031 16
 170 1100 0 ?172 173 174 166 0 0 1 31 171 1136 0 173 166 175 0 +-.2425 .0015 .02
3 0 1 0 1 0 0 .0052 16 173 1090 0 ?176 177 170 171 0 0 1 31 175 1133 0 178 171 1
79 0 +-.2425 .0015 .077 0 1 0 1 0 0 .0052 16 178 1113 0 ?180 174 181 175 0 0 1 3
1 179 1131 0 174 175 182 0 +-.2425 .001499999999999946 .077 0 1 0 0 0 -1 .0031 1
6 174 1103 0 ?183 170 178 179 0 0 1 31 182 1465 0 169 179 21 0 +0 0 .088 0 0 1 0
 -1 0 .0024585 16 169 1462 184 ?185 26 165 182 0 0 1 31 21 1533 0 26 182 6 0 +.1
5 631207924365421e-32 .088 0 0 1 0 -1 0 .0024585 16 26 1530 186 ?187 9 169 21 0
 0 1 81 2 186 1548 188 26 189 0 184 24 0 0 17 187 0 190 187 187 0 191 26 0 0 +15
 190 1531 0 187 192 0 17 191 0 193 191 191 0 187 26 0 0 -15 193 1532 0 191 194 1
95 14 255 194 1515 196 ?197 198 193 4 199 -192 192 197 198 23 15 195 1522 0 200
 194 0 17 200 0 195 200 200 0 201 202 0 0 -17 201 0 203 201 201 0 200 202 0 0 +1
6 202 1504 0 ?201 204 205 206 0 0 1 16 204 1503 0 ?207 208 202 209 0 0 1 16 205
 1570 0 ?210 202 211 212 0 0 1 31 206 1529 0 202 212 209 0 +.15 631207924365421e
-32 .1 0 0 -1 0 -1 0 .0024585 31 212 1595 0 205 213 206 0 +-.15 -37606765712409e
-30 .086 0 0 1 0 -1 0 .0024585 31 209 1528 0 204 206 214 0 +.15 631207924365421e
-32 .086 0 0 1 0 -1 0 .0024585 31 214 1461 0 208 209 215 0 +0 0 .1 0 0 -1 0 -1 0
 .0024585 16 208 1436 0 ?216 217 204 214 0 0 1 31 215 1460 0 217 214 218 0 +0 0
 .086 0 0 1 0 -1 0 .0024585 16 217 1435 0 ?219 220 208 215 0 0 1 31 218 1413 0 2
20 215 221 0 +.15 .0075 .03 0 1 0 -1 0 0 .0024585 16 220 1379 222 ?223 224 217 2
18 0 0 1 31 221 1412 0 224 218 225 0 +.15 -.0075 .03 0 1 0 0 0 1 .0024585 16 224
 1377 0 ?226 227 220 221 0 0 1 31 225 1341 0 227 221 228 0 +-.15 .0075 .03 0 1 0
 -1 0 0 .0024585 16 227 1307 229 ?230 231 224 225 0 0 1 31 228 1340 0 231 225 23
2 0 +-.15 -.0075 .03 0 1 0 0 0 1 .0024585 16 231 1305 0 ?233 234 227 228 0 0 1 3
1 232 1269 0 234 228 235 0 +0 .0075 .03 0 1 0 -1 0 0 .0024585 16 234 1235 236 ?2
37 181 231 232 0 0 1 31 235 1268 0 181 232 238 0 +0 -.0075 .03 0 1 0 0 0 1 .0024
585 16 181 1233 0 ?239 178 234 235 0 0 1 31 238 896 0 152 235 240 0 +.2425 .0015
 .023 0 -1 0 -1 0 0 .0052 16 152 811 0 ?241 148 242 238 0 0 1 31 240 895 0 242 2
38 243 0 +.2425 .0015 .077 0 -1 0 -1 0 0 .0052 16 242 847 0 ?244 152 245 240 0 0
 1 31 243 894 0 245 240 246 0 +.2425 .0075 .023 0 -1 0 -1 0 0 .0052 16 245 812 2
47 ?248 242 177 243 0 0 1 31 246 893 0 177 243 249 0 +.2425 .0075 .077 0 -1 0 -1
 0 0 .0052 16 177 849 250 ?251 245 173 246 0 0 1 31 249 772 0 155 246 252 0 +.24
25 -.0035 .023 0 1 0 0 0 1 .0031 16 155 737 253 ?254 102 151 249 0 0 1 31 252 71
1 0 102 249 103 0 +.2425 -.0035 .077 0 1 0 0 0 1 .0031 16 102 676 255 ?256 87 15
5 252 0 0 1 30 103 588 0 87 252 257 0 +.25 -.0035 .1 -1 -542101086242752e-31 0 3
0 257 587 0 33 103 258 0 +.234 -.0035 .1 0 -1 0 16 33 496 259 ?27 260 87 257 0 0
 1 30 258 585 0 260 257 261 0 +.234 -.0075 -.4101225342993585 0 0 1 16 260 482 0
 ?34 94 33 258 0 0 1 30 261 584 0 94 258 95 0 +.234 -.0035 -.4101225342993585 0
 0 1 16 94 479 0 ?31 83 260 261 0 0 1 30 95 583 0 83 261 262 0 +.25 -.0035 -.410
1225342993585 0 0 1 30 262 324 0 93 95 263 0 +-.234 -.0075 .1 0 1 0 16 93 228 26
4 ?265 41 83 262 0 0 1 30 263 323 0 41 262 266 0 +-.234 -.00323333333333334 .1 -
1 115648231731787e-30 0 16 41 232 267 ?35 268 93 263 0 0 1 30 266 321 0 268 263
 269 0 +-.25 -.003233333333333335 -.4101225342993585 0 0 1 16 268 218 0 ?42 270
 41 266 0 0 1 30 269 320 0 270 266 115 0 +-.234 -.00323333333333334 -.4101225342
993585 0 0 1 16 270 215 0 ?39 133 268 269 0 0 1 30 115 319 0 133 269 114 0 +-.23
4 -.0075 -.4101225342993585 0 0 1 16 133 211 0 ?67 125 270 115 0 0 1 17 67 0 271
 265 57 65 272 133 0 273 +15 271 289 0 67 274 0 17 265 0 271 275 67 63 273 93 0
 40 +17 57 0 271 67 275 52 140 138 0 272 -17 272 0 276 123 277 52 67 133 0 278 -
17 273 0 96 100 40 65 265 93 0 277 -17 100 0 96 32 273 10 277 109 0 0 +17 40 0 9
6 273 118 63 35 41 0 0 -17 277 0 276 272 34 65 100 109 0 0 -15 276 70 0 123 279
 0 17 34 0 276 277 123 10 30 260 0 100 +17 123 0 276 34 272 71 278 120 0 0 +17 3
0 0 29 75 27 71 34 260 0 147 -15 29 559 0 31 280 0 17 75 0 29 31 30 73 147 141 0
 86 -17 147 0 281 278 88 71 75 141 0 123 +15 281 36 0 92 282 0 17 278 0 281 140
 147 52 123 120 0 0 -17 88 0 281 147 92 73 70 89 0 0 +17 92 0 281 88 283 68 51 1
24 0 0 -17 283 0 281 92 284 50 49 119 0 0 -17 51 0 90 99 82 50 92 124 0 105 +17
 105 0 285 49 107 50 99 106 0 283 +15 285 66 0 49 286 0 17 49 0 285 287 105 47 2
83 119 0 135 +17 107 0 285 105 287 44 43 108 0 0 -17 287 0 285 107 49 36 135 111
 0 288 -17 43 0 96 118 55 36 107 108 0 287 +17 118 0 96 40 43 28 288 113 0 0 +17
 288 0 289 135 42 36 118 113 0 0 -15 289 72 0 132 290 0 17 135 0 289 132 288 47
 287 111 0 284 +17 42 0 289 288 132 28 38 268 0 118 +17 132 0 289 42 135 58 284
 125 0 0 +17 38 0 37 62 35 58 42 268 0 143 -15 37 295 0 39 291 0 17 62 0 37 39 3
8 60 143 137 0 275 -17 143 0 281 284 140 58 62 137 0 132 +17 284 0 281 283 143 4
7 132 125 0 0 -17 140 0 281 143 278 60 57 138 0 0 +17 39 0 37 35 62 63 275 270 0
 265 +17 275 0 271 57 265 60 39 270 0 140 -14 291 290 292 ?293 274 294 4 295 -0
 0 293 274 23 81 2 292 1706 296 291 297 0 298 299 300 301 14 293 874 299 ?302 29
1 303 4 304 +0 0 302 291 23 14 274 284 298 ?291 97 271 4 305 -0 0 291 97 23 15 2
94 944 0 306 291 307 50 255 295 311 0 291 308 305 0 +-.234 -.00323333333333334 -
.4101225342993585 115648231731787e-30 1 0 -1 115648231731787e-30 0 13 23 1144 0
 0 0 0 0 0 8 17 14 17 1601 309 ?192 0 310 4 311 -312 312 192 0 23 81 2 309 1661
 296 17 313 0 314 315 316 317 14 192 1534 315 ?318 17 319 4 199 -194 194 318 17
 23 15 310 1588 0 320 17 321 51 311 1592 0 312 322 323 0 +-.15 -37606765712409e-
30 .1 0 0 -1 .0024585 0 -1 0 14 312 1582 314 ?0 197 324 4 311 -17 17 0 197 23 81
 2 314 1658 296 312 325 0 196 309 326 327 14 197 1572 328 ?312 194 329 4 322 -0
 0 312 194 23 15 324 1599 0 330 312 331 17 330 0 324 330 330 0 25 9 0 0 -15 331
 1589 0 332 312 0 17 332 0 331 332 332 0 333 211 0 0 -17 333 0 334 333 333 0 332
 211 0 0 +16 211 1571 0 ?333 205 0 213 0 0 1 31 213 1596 0 211 0 212 0 +-.15 -37
606765712409e-30 .1 0 0 -1 0 -1 0 .0024585 15 334 1564 0 333 97 203 14 97 26 335
 ?274 290 334 4 336 +0 0 274 290 23 15 203 1497 0 201 97 337 15 337 1429 0 216 9
7 96 17 216 0 337 216 216 0 338 208 0 0 +17 338 0 339 338 338 0 216 208 0 0 -15
 339 1454 0 338 340 0 14 340 1447 341 ?198 342 343 4 344 -318 318 198 342 23 81
 2 341 1652 296 340 345 0 346 196 347 348 14 198 1505 349 ?194 340 350 4 323 -0
 0 194 340 23 14 342 1437 351 ?340 352 353 4 354 -0 0 340 352 23 15 343 1464 0 3
55 340 339 51 344 1457 0 340 354 356 0 +0 0 .1 0 0 -1 .0024585 0 -1 0 14 318 146
6 357 ?358 192 359 4 344 -340 340 360 192 23 81 2 357 1667 296 318 361 0 315 362
 363 364 14 358 688 362 ?365 318 366 4 367 +0 0 365 368 23 15 359 1453 0 369 318
 370 14 360 1048 371 ?19 286 372 4 373 -0 0 19 318 23 81 2 371 1718 296 360 374
 0 375 376 377 378 14 19 1065 376 ?379 360 380 4 5 +0 0 379 360 23 14 286 67 375
 ?360 302 381 4 382 -0 0 383 302 23 15 372 1054 0 384 360 385 50 373 1127 0 360
 386 20 0 +-.2425 .0015 .077 0 -1 0 0 0 -1 50 386 1128 0 387 388 373 0 +-.2425 .
0015 .023 0 -1 0 0 0 -1 51 20 1126 0 379 373 5 0 --.2425 .0015 .077 0 1 0 .0052
 0 0 1 14 379 1056 389 ?387 19 390 4 20 +0 0 387 19 23 81 2 389 1724 296 379 391
 0 376 392 393 394 14 387 1030 392 ?395 379 396 4 386 -0 0 395 379 23 15 390 106
3 0 397 379 398 17 397 0 390 397 397 0 180 178 0 0 -15 398 1064 0 164 379 0 17 1
64 0 398 164 164 0 399 161 0 0 +17 399 0 400 399 399 0 164 161 0 0 -15 400 953 0
 399 286 401 15 401 804 0 248 286 402 17 248 0 401 248 248 0 403 245 0 0 +15 402
 797 0 251 286 285 17 251 0 402 251 251 0 404 177 0 0 +17 404 0 405 404 404 0 25
1 177 0 0 -15 405 880 0 404 293 0 17 403 0 406 403 403 0 248 245 0 0 -15 406 838
 0 403 302 0 14 302 832 407 ?286 293 408 4 409 +0 0 286 293 23 81 2 407 1712 296
 302 410 0 299 375 411 412 15 408 837 0 241 302 406 51 409 886 0 302 413 304 0 -
.2425 .0015 .023 0 1 0 .0052 0 0 1 50 413 889 0 414 415 409 0 +.2425 .0015 .077
 0 -1 0 0 0 -1 51 304 885 0 293 409 416 0 -.2425 .0015 .077 0 1 0 .0052 0 0 1 51
 416 768 0 365 304 367 0 -.2425 .506622534299358 .023 0 -1 0 .0031 0 0 -1 14 365
 749 417 ?414 358 418 4 416 +0 0 414 358 23 51 367 707 0 358 416 419 0 -.2425 .5
06622534299358 .077 0 -1 0 .0031 0 0 -1 50 419 575 0 280 367 308 0 +.234 -.0035
 -.4101225342993585 -1 0 0 0 0 1 14 280 554 420 ?85 421 29 4 419 -0 0 85 421 23
 50 308 574 0 85 419 295 0 +.25 -.0035 -.4101225342993585 -542101086242752e-31 1
 0 -1 -542101086242752e-31 0 14 85 548 422 ?279 280 423 4 308 -0 0 279 280 23 81
 2 422 1685 296 85 424 0 420 425 426 427 14 279 71 425 ?104 85 428 4 429 -0 0 10
4 85 23 15 423 716 0 254 85 430 17 254 0 423 254 254 0 431 155 0 0 +15 430 655 0
 256 85 80 17 256 0 430 256 256 0 432 102 0 0 +17 432 0 433 432 432 0 256 102 0
 0 -15 433 694 0 432 358 0 17 431 0 434 431 431 0 254 155 0 0 -15 434 755 0 431
 365 0 81 2 425 1688 296 279 435 0 422 436 437 438 14 104 69 436 ?282 279 90 4 4
39 -0 0 282 279 23 15 428 1363 0 226 279 440 50 429 76 0 279 439 441 0 +-.25 -.0
075 .1 0 1 0 0 0 1 50 439 75 0 104 382 429 0 +.25 -.0075 .1 -1 0 0 0 0 1 50 441
 77 0 290 429 442 0 +-.25 .0075 .1 1 0 0 0 0 -1 14 290 73 443 ?97 282 289 4 441
 -0 0 97 282 23 51 442 1130 0 395 441 388 0 --.2425 .506622534299358 .023 0 -1 0
 .0031 0 0 -1 14 395 1012 444 ?368 387 445 4 442 +0 0 368 387 23 51 388 1129 0 3
68 442 386 0 --.2425 .0015 .023 0 1 0 .0052 0 0 1 14 368 1021 446 ?383 395 447 4
 388 +0 0 358 395 23 81 2 446 1733 296 368 448 0 444 351 449 450 14 383 1246 451
 ?452 368 453 4 454 -0 0 452 286 23 15 447 1028 0 455 368 456 17 455 0 447 455 4
55 0 176 173 0 0 -15 456 1029 0 168 368 0 17 168 0 456 168 168 0 457 165 0 0 +17
 457 0 458 457 457 0 168 165 0 0 -15 458 962 0 457 286 400 17 176 0 459 176 176
 0 455 173 0 0 +15 459 1037 0 176 387 0 81 2 451 1643 296 383 460 0 0 461 462 46
3 14 452 1318 461 ?352 383 464 4 465 -0 0 352 383 23 15 453 1251 0 466 383 467 5
1 454 1265 0 383 465 415 0 +0 -.502622534299358 .03 0 1 0 .0024585 0 0 1 51 465
 1337 0 452 356 454 0 +-.15 -.502622534299358 .03 0 1 0 .0024585 0 0 1 50 415 89
0 0 421 454 413 0 +.2425 .0015 .023 0 -1 0 0 0 -1 14 421 826 468 ?280 414 469 4
 415 -0 0 280 414 23 81 2 468 1679 296 421 470 0 471 420 472 473 14 414 862 471
 ?421 365 474 4 413 -0 0 421 365 23 15 469 830 0 150 421 475 17 150 0 469 150 15
0 0 476 148 0 0 +15 475 831 0 477 421 0 17 477 0 475 477 477 0 241 152 0 0 -17 2
41 0 408 241 241 0 477 152 0 0 +17 476 0 418 476 476 0 150 148 0 0 -15 418 783 0
 476 365 434 81 2 471 1676 296 414 478 0 417 468 479 480 15 474 866 0 154 414 48
1 17 154 0 474 154 154 0 482 151 0 0 +15 481 867 0 483 414 0 17 483 0 481 483 48
3 0 244 242 0 0 -17 244 0 303 244 244 0 483 242 0 0 +15 303 879 0 244 293 405 17
 482 0 366 482 482 0 154 151 0 0 -15 366 790 0 482 358 433 80 7 CCCCCDI12 legal_
owners0 17 1 lCZ2 296 484 485 8014 0 0 0 0 3 5 0 0 0 FFFFTFFFFFFFFFFFF2 1 81 1 4
78 1675 486 414 487 471 488 470 489 81 2 417 1673 296 365 488 0 362 471 490 491
 83 255 1 479 0 82 255 1 480 0 81 1 488 1672 486 365 492 417 493 478 494 81 2 36
2 1670 296 358 493 0 357 417 495 496 83 1 490 0 82 1 491 0 81 1 493 1669 486 358
 497 362 361 488 498 83 1 495 0 82 1 496 0 80 1 486 296 499 8015 0 0 0 0 3 5 0 0
 0 FFFFTFFFFFFFFFFFF2 81 1 497 1668 500 358 501 493 502 492 503 81 1 361 1666 48
6 318 502 357 504 493 505 83 1 498 0 81 1 502 1665 500 318 506 361 507 497 508 8
1 1 504 1663 486 192 507 315 313 361 509 83 1 505 0 81 1 507 1662 500 192 510 50
4 511 502 512 81 2 315 1664 296 192 504 0 309 357 513 514 81 1 313 1660 486 17 5
11 309 325 504 515 83 1 509 0 81 1 511 1659 500 17 516 313 517 507 518 81 1 325
 1657 486 312 517 314 519 313 520 83 1 515 0 81 1 517 1656 500 312 521 325 522 5
11 523 81 1 519 1654 486 194 522 196 345 325 524 83 1 520 0 81 1 522 1653 500 19
4 525 519 526 517 527 81 2 196 1655 296 194 519 0 341 314 528 529 81 1 345 1651
 486 340 526 341 530 519 531 83 1 524 0 81 1 526 1650 500 340 532 345 533 522 53
4 81 1 530 1648 486 352 533 346 535 345 536 83 1 531 0 14 352 1390 346 ?342 452
 537 4 356 -0 0 342 452 23 81 1 533 1647 500 352 538 530 539 526 540 81 2 346 16
49 296 352 530 0 461 341 541 542 81 1 535 1645 486 452 539 461 460 530 543 83 1
 536 0 81 1 539 1644 500 452 544 535 545 533 546 81 2 461 1646 296 452 535 0 451
 346 547 548 81 1 460 1642 486 383 545 451 0 535 549 83 1 543 0 81 1 545 1641 50
0 383 550 460 0 539 551 83 1 549 0 80 1 500 0 552 8001 0 0 0 0 3 5 0 0 0 FFFFTFT
FFFFFFFFFF2 81 1 550 1640 553 383 554 545 544 0 555 83 3 551 .184313729405403 .7
49019622802734 .580392181873322 80 1 553 556 557 9000 0 0 0 0 3 5 0 0 0 FFTTTTTT
FFFFTFFFF1 81 1 554 1279 558 383 559 550 560 561 0 81 1 544 1639 553 452 561 539
 538 550 562 82 5 555 2 -2147483598 0 0 0 81 1 561 1351 558 452 563 544 554 564
 0 81 1 538 1638 553 352 565 533 532 544 566 82 5 562 2 -2147483598 0 0 0 81 1 5
65 1423 558 352 567 538 568 506 0 81 1 532 1637 553 340 569 526 525 538 570 82 5
 566 2 -2147483598 0 0 0 81 1 569 1491 558 340 571 532 572 510 0 81 1 525 1636 5
53 194 573 522 521 532 574 82 5 570 2 -2147483598 0 0 0 81 1 573 1558 558 194 57
5 525 576 516 0 81 1 521 1635 553 312 577 517 0 525 578 82 5 574 2 -2147483598 0
 0 0 81 1 577 1625 558 312 579 521 580 0 0 82 5 578 2 -2147483598 0 0 0 80 1 558
 581 582 9000 1 1 1 1 1 1 1 1 0 FFFFTFTTFFFFFFFFF1 81 5 579 1616 583 312 584 577
 585 586 587 588 589 590 591 81 1 580 1624 558 197 592 593 594 577 0 81 1 592 15
73 595 197 596 580 597 584 598 81 1 593 1740 500 197 580 599 600 0 601 81 1 594
 1623 558 97 602 603 516 580 0 81 1 602 87 595 97 604 594 0 605 606 81 1 603 169
8 500 97 594 607 608 609 610 81 1 516 1622 558 17 586 511 573 594 0 81 5 586 161
7 583 17 611 516 579 0 612 613 614 615 616 80 5 583 617 618 9000 2 2 2 2 3 5 0 0
 0 FFFFTFFFFFFFFFFFF1 1 2 10 7 81 1 611 1610 595 17 619 586 584 0 620 82 1 612 1
3 82 53 613 0 3 1 3 0 0 3 0 1 1 1 1 2 1 2 1 850 0 1 0 0 0 0 0 0 0 0 0 0 0 0 0 0
 0 0 0 0 0 0 0 0 0 2 1 1582 1 1601 0 0 0 0 0 0 83 43 614 .006 .0127 .0127 82 .01
27 .0127 0 .014 12 0 6 4.917 4.773 .1 0 0 0 .04363323129985825 .1 1 0 0 0 0 0 0
 .0127 5 1 0 0 0 0 0 0 0 0 0 0 0 0 0 0 98 255 2 615 77 54 87 255 2 616 -.15 -376
06765712409e-30 .1 0 0 1 80 1 595 621 622 9000 0 0 0 0 3 6 0 0 0 FFFFTFFFFFFFFFF
FF1 81 3 619 1607 623 17 0 611 624 625 626 627 0 81 1 584 1584 595 312 624 579 5
92 611 628 82 1 620 1614 81 3 624 1587 623 312 0 584 596 619 629 630 0 82 1 628
 1614 80 3 623 631 632 9000 0 0 0 0 3 6 0 0 0 FFFFTFTTFFFFFFFFF1 1 3 81 3 596 15
75 623 197 0 592 633 624 634 635 0 82 1 629 5 82 1 630 10 81 3 633 1544 623 26 0
 636 637 596 638 639 0 82 1 634 5 82 1 635 12 81 1 636 1545 581 26 633 640 641 6
42 643 81 3 637 1540 623 192 0 597 644 633 645 646 0 82 1 638 5 82 1 639 9 81 1
 597 1543 595 192 637 585 647 592 648 81 3 644 1520 623 194 0 647 649 637 650 65
1 0 82 1 645 5 82 1 646 8 81 1 647 1517 595 194 644 575 652 597 653 81 3 649 150
8 623 198 0 652 654 644 655 656 0 82 1 650 5 82 1 651 5 81 1 652 1506 595 198 64
9 576 657 647 658 81 3 654 1477 623 169 0 641 659 649 660 661 0 82 1 655 5 82 1
 656 7 81 1 641 1478 581 169 654 662 222 636 663 81 3 659 1472 623 318 0 657 664
 654 665 666 0 82 1 660 5 82 1 661 4 81 1 657 1476 595 318 659 667 668 652 669 8
1 3 664 1452 623 340 0 668 670 659 671 672 0 82 1 665 5 82 1 666 3 81 1 668 1449
 595 340 664 571 673 657 674 81 3 670 1440 623 342 0 673 675 664 676 677 0 82 1
 671 5 82 1 672 0 81 1 673 1438 595 342 670 572 678 668 679 81 3 675 1394 623 35
2 0 678 680 670 681 682 0 82 1 676 5 82 1 677 2 81 1 678 1391 595 352 675 567 68
3 673 684 81 3 680 1322 623 452 0 683 685 675 686 687 0 82 1 681 3 82 1 682 8 81
 1 683 1319 595 452 680 563 688 678 689 81 3 685 1250 623 383 0 688 690 680 691
 692 0 82 1 686 3 82 1 687 5 81 1 688 1247 595 383 685 559 693 683 694 81 3 690
 1193 623 19 0 693 695 685 696 697 0 82 1 691 3 82 1 692 2 81 1 693 1195 595 19
 690 698 699 688 700 81 3 695 1190 623 379 0 699 701 690 702 703 0 82 1 696 1 82
 1 697 3 81 1 699 1192 595 379 695 704 705 693 706 81 3 701 1187 623 360 0 705 7
07 695 708 709 0 82 1 702 0 82 1 703 26 81 1 705 1189 595 360 701 710 711 699 71
2 81 3 707 1184 623 387 0 711 713 701 714 715 0 82 1 708 0 82 1 709 27 81 1 711
 1186 595 387 707 716 717 705 718 81 3 713 1181 623 368 0 717 719 707 720 721 0
 82 1 714 0 82 1 715 27 81 1 717 1183 595 368 713 560 722 711 723 81 3 719 1178
 623 395 0 722 724 713 725 726 0 82 1 720 0 82 1 721 28 81 1 722 1180 595 395 71
9 727 728 717 729 81 3 724 878 623 293 0 728 730 719 731 732 0 82 1 725 1 82 1 7
26 2 81 1 728 875 595 293 724 733 734 722 735 81 3 730 865 623 414 0 734 736 724
 737 738 0 82 1 731 0 82 1 732 23 81 1 734 863 595 414 730 739 740 728 741 81 3
 736 836 623 302 0 740 742 730 743 744 0 82 1 737 0 82 1 738 20 81 1 740 833 595
 302 736 745 746 734 747 81 3 742 829 623 421 0 746 748 736 749 750 0 82 1 743 0
 82 1 744 22 81 1 746 827 595 421 742 751 752 740 753 81 3 748 753 623 365 0 752
 754 742 755 756 0 82 1 749 0 82 1 750 20 81 1 752 750 595 365 748 757 758 746 7
59 81 3 754 692 623 358 0 758 760 748 761 762 0 82 1 755 1 82 1 756 1 81 1 758 6
89 595 358 754 501 763 752 764 81 3 760 558 623 280 0 763 765 754 766 767 0 82 1
 761 1 82 1 762 0 81 1 763 555 595 280 760 768 769 758 770 81 3 765 552 623 85 0
 769 771 760 772 773 0 82 1 766 0 82 1 767 60 81 1 769 549 595 85 765 774 775 76
3 776 81 3 771 294 623 291 0 775 777 765 778 779 0 82 1 772 0 82 1 773 61 81 1 7
75 291 595 291 771 780 781 769 782 81 3 777 288 623 274 0 781 783 771 784 785 0
 82 1 778 0 82 1 779 8 81 1 781 285 595 274 777 786 787 775 788 81 3 783 103 623
 290 0 787 789 777 790 791 0 82 1 784 0 82 1 785 9 81 1 787 106 595 290 783 792
 793 781 794 81 3 789 99 623 279 0 793 795 783 796 797 0 82 1 790 0 82 1 791 5 8
1 1 793 102 595 279 789 564 798 787 799 81 3 795 95 623 104 0 798 800 789 801 80
2 0 82 1 796 0 82 1 797 4 81 1 798 98 595 104 795 803 804 793 805 81 3 800 91 62
3 286 0 804 806 795 807 808 0 82 1 801 0 82 1 802 3 81 1 804 94 595 286 800 568
 605 798 809 81 3 806 88 623 282 0 605 604 800 810 811 0 82 1 807 0 82 1 808 2 1
4 282 35 812 ?290 104 281 4 813 -0 0 290 104 23 81 1 605 90 595 282 806 814 602
 804 815 81 3 604 84 623 97 0 602 0 806 816 817 0 82 1 810 0 82 1 811 1 82 1 816
 0 82 1 817 0 81 1 814 648 558 282 605 818 803 786 0 82 1 815 609 81 1 818 1692
 500 282 814 819 820 608 821 81 1 803 646 558 104 798 820 792 814 0 81 1 786 649
 558 274 781 609 814 768 0 81 1 609 1701 500 274 786 822 603 823 824 81 1 768 65
2 558 280 763 825 786 774 0 81 1 825 1680 500 280 768 826 827 828 829 81 1 774 7
78 558 85 769 828 768 501 0 81 1 828 1683 500 85 774 424 825 830 831 81 1 501 90
5 558 358 758 497 774 757 0 81 1 757 906 558 365 752 492 501 751 0 81 1 492 1671
 500 365 757 488 497 487 832 81 1 751 907 558 421 746 827 757 745 0 81 1 827 167
7 500 421 751 470 487 825 833 81 1 745 908 558 302 740 834 751 739 0 81 1 834 17
10 500 302 745 410 835 836 837 81 1 739 909 558 414 734 487 745 733 0 81 1 487 1
674 500 414 739 478 492 827 838 81 1 733 910 558 293 728 835 739 780 0 81 1 835
 1707 500 293 733 839 823 834 840 81 1 780 1198 558 291 775 823 733 710 0 81 1 8
23 1704 500 291 780 297 609 835 841 81 1 710 1200 558 360 705 842 780 698 0 81 1
 842 1716 500 360 710 374 836 843 844 81 1 698 1201 558 19 693 843 710 704 0 81
 1 843 1719 500 19 698 845 842 846 847 81 1 704 1202 558 379 699 846 698 716 0 8
1 1 846 1722 500 379 704 391 843 848 849 81 1 716 1203 558 387 711 848 704 727 0
 81 1 848 1725 500 387 716 850 846 851 852 81 1 727 1204 558 395 722 851 716 560
 0 81 1 851 1728 500 395 727 853 848 854 855 81 1 560 1205 558 368 717 854 727 5
54 0 81 1 854 1731 500 368 560 448 851 856 857 81 1 448 1732 486 368 854 446 853
 858 859 81 1 856 1734 500 342 572 858 854 600 860 83 3 857 .505882382392883 .52
9411792755127 .549019634723663 81 1 572 1490 558 342 673 856 506 569 0 81 1 858
 1735 486 342 856 351 448 861 862 81 1 600 1737 500 198 576 861 856 593 863 83 3
 860 .505882382392883 .529411792755127 .549019634723663 81 1 576 1557 558 198 65
2 600 510 573 0 81 1 861 1738 486 198 600 349 858 599 864 83 3 863 .505882382392
883 .529411792755127 .549019634723663 81 2 349 1739 296 198 861 0 351 328 865 86
6 81 1 599 1741 486 197 593 328 861 0 867 83 1 864 0 81 2 328 1742 296 197 599 0
 349 0 868 869 83 1 867 0 83 1 868 0 82 1 869 0 81 2 351 1736 296 342 858 0 446
 349 870 871 83 1 865 0 82 1 866 0 83 1 870 0 82 1 871 0 81 1 510 1555 558 192 5
85 507 569 576 0 81 5 585 1550 583 192 597 510 575 579 872 873 874 875 876 81 5
 575 1549 583 194 647 573 667 585 877 878 879 880 881 82 1 872 13 82 53 873 0 3
 1 3 0 0 3 0 1 1 1 1 2 1 2 1 850 0 1 0 0 0 0 0 0 0 0 0 0 0 0 0 0 0 0 0 0 0 0 0 0
 0 2 1 1515 1 1534 0 0 0 0 0 0 83 43 874 .006 .0127 .0127 82 .0127 .0127 0 .014
 12 0 6 4.917 4.773 .1 0 0 0 .04363323129985825 .1 1 0 0 0 0 0 0 .0127 5 1 0 0 0
 0 0 0 0 0 0 0 0 0 0 0 98 2 875 77 54 87 2 876 .15 631207924365421e-32 .1 0 0 1
 81 5 667 1483 583 318 657 506 571 575 882 883 884 885 886 82 1 877 13 82 53 878
 0 3 1 3 0 0 3 0 1 1 1 1 2 1 1 1 850 0 1 0 0 0 0 0 0 0 0 0 0 0 0 0 0 0 0 0 0 0 0
 0 0 0 2 1 1515 1 1534 0 0 0 0 0 0 83 43 879 .006 .0127 .0127 82 .0127 .0127 0 .
014 12 0 6 4.917 4.773 .1 0 0 0 .04363323129985825 .1 1 0 0 0 0 0 0 .0127 5 1 0
 0 0 0 0 0 0 0 0 0 0 0 0 0 98 2 880 77 54 87 2 881 .15 631207924365421e-32 .1 0
 0 1 81 1 506 1488 558 318 667 502 565 572 0 81 5 571 1482 583 340 668 569 0 667
 887 888 889 890 891 82 1 882 13 82 53 883 0 3 1 3 0 0 3 0 1 1 1 1 2 1 2 1 850 0
 1 0 0 0 0 0 0 0 0 0 0 0 0 0 0 0 0 0 0 0 0 0 0 0 2 1 1447 1 1466 0 0 0 0 0 0 83
 43 884 .006 .0127 .0127 82 .0127 .0127 0 .014 12 0 6 4.917 4.773 .1 0 0 0 .0436
3323129985825 .1 1 0 0 0 0 0 0 .0127 5 1 0 0 0 0 0 0 0 0 0 0 0 0 0 0 98 2 885 77
 54 87 2 886 0 0 .1 0 0 1 82 1 887 13 82 53 888 0 3 1 3 0 0 3 0 1 1 1 1 2 1 1 1
 850 0 1 0 0 0 0 0 0 0 0 0 0 0 0 0 0 0 0 0 0 0 0 0 0 0 2 1 1447 1 1466 0 0 0 0 0
 0 83 43 889 .006 .0127 .0127 82 .0127 .0127 0 .014 12 0 6 4.917 4.773 .1 0 0 0
 .04363323129985825 .1 1 0 0 0 0 0 0 .0127 5 1 0 0 0 0 0 0 0 0 0 0 0 0 0 0 98 2
 890 77 54 87 2 891 0 0 .1 0 0 1 83 1 862 0 81 1 853 1729 486 395 851 444 850 44
8 892 83 1 859 0 81 2 444 1730 296 395 853 0 392 446 893 894 81 1 850 1726 486 3
87 848 392 391 853 895 83 1 892 0 81 2 392 1727 296 387 850 0 389 444 896 897 81
 1 391 1723 486 379 846 389 845 850 898 83 1 895 0 81 1 845 1720 486 19 843 376
 374 391 899 83 1 898 0 81 2 376 1721 296 19 845 0 371 389 900 901 81 1 374 1717
 486 360 842 371 902 845 903 83 1 899 0 81 1 902 1714 486 286 836 375 410 374 90
4 83 1 903 0 81 1 836 1713 500 286 568 902 834 842 905 81 2 375 1715 296 286 902
 0 407 371 906 907 81 1 410 1711 486 302 834 407 839 902 908 83 1 904 0 81 1 839
 1708 486 293 835 299 297 410 909 83 1 908 0 81 2 299 1709 296 293 839 0 292 407
 910 911 81 1 297 1705 486 291 823 292 822 839 912 83 1 909 0 81 1 822 1702 486
 274 609 298 607 297 913 83 1 912 0 81 2 298 1703 296 274 822 0 335 292 914 915
 81 1 607 1699 486 97 603 335 916 822 917 83 1 913 0 81 2 335 1700 296 97 607 0
 443 298 918 919 81 1 916 1696 486 290 608 443 819 607 920 83 1 917 0 81 1 608 1
695 500 290 792 916 818 603 921 81 2 443 1697 296 290 916 0 812 335 922 923 81 1
 819 1693 486 282 818 812 924 916 925 83 1 920 0 81 2 812 1694 296 282 819 0 436
 443 926 927 81 1 924 1690 486 104 820 436 435 819 928 83 1 925 0 81 1 820 1689
 500 104 803 924 830 818 929 81 2 436 1691 296 104 924 0 425 812 930 931 81 1 43
5 1687 486 279 830 425 424 924 932 83 1 928 0 81 1 830 1686 500 279 564 435 828
 820 933 81 1 424 1684 486 85 828 422 826 435 934 83 1 932 0 81 1 826 1681 486 2
80 825 420 470 424 935 83 1 934 0 81 2 420 1682 296 280 826 0 468 422 936 937 81
 1 470 1678 486 421 827 468 478 826 938 83 1 935 0 83 1 938 0 83 1 936 0 82 1 93
7 0 81 1 564 1421 558 279 793 830 561 568 0 83 3 933 .505882382392883 .529411792
755127 .549019634723663 81 1 568 1422 558 286 804 836 564 565 0 83 1 930 0 82 1
 931 0 83 3 929 .505882382392883 .529411792755127 .549019634723663 83 1 926 0 82
 1 927 0 83 1 922 0 82 1 923 0 81 1 792 644 558 290 787 608 0 803 0 83 3 921 .50
5882382392883 .529411792755127 .549019634723663 83 1 918 0 82 1 919 0 83 1 914 0
 82 1 915 0 83 1 910 0 82 1 911 0 83 1 906 0 82 1 907 0 83 3 905 .50588238239288
3 .529411792755127 .549019634723663 83 1 900 0 82 1 901 0 83 1 896 0 82 1 897 0
 83 1 893 0 82 1 894 0 83 3 855 .505882382392883 .529411792755127 .5490196347236
63 83 3 852 .505882382392883 .529411792755127 .549019634723663 83 3 849 .5058823
82392883 .529411792755127 .549019634723663 83 3 847 .505882382392883 .5294117927
55127 .549019634723663 83 3 844 .505882382392883 .529411792755127 .5490196347236
63 83 3 841 .505882382392883 .529411792755127 .549019634723663 83 3 840 .5058823
82392883 .529411792755127 .549019634723663 83 3 838 .505882382392883 .5294117927
55127 .549019634723663 83 3 837 .505882382392883 .529411792755127 .5490196347236
63 83 3 833 .505882382392883 .529411792755127 .549019634723663 83 3 832 .5058823
82392883 .529411792755127 .549019634723663 83 3 831 .505882382392883 .5294117927
55127 .549019634723663 83 3 829 .505882382392883 .529411792755127 .5490196347236
63 83 3 824 .505882382392883 .529411792755127 .549019634723663 83 3 821 .5058823
82392883 .529411792755127 .549019634723663 50 813 53 0 282 336 382 0 +0 0 0 0 0
 1 1 0 0 50 336 29 0 97 305 813 0 +0 0 .1 0 0 1 1 0 0 50 382 74 0 286 813 439 0
 +.25 .0075 .1 0 -1 0 0 0 -1 50 305 310 0 274 295 336 0 +-.234 -.0075 -.41012253
42993585 1 0 0 0 0 -1 82 1 809 609 82 1 805 609 82 1 799 609 82 1 794 609 82 1 7
88 723 82 1 782 723 82 1 776 723 82 1 770 723 82 1 764 835 82 1 759 835 82 1 753
 1073 82 1 747 1073 82 1 741 1073 82 1 735 1073 82 1 729 1087 82 1 723 1087 82 1
 718 1087 82 1 712 1087 82 1 706 1087 82 1 700 1087 81 5 559 1273 939 383 688 55
4 0 563 940 941 942 943 944 82 1 694 938 80 5 939 583 945 9000 2 2 2 2 3 5 0 0 0
 FFFFTFFFFFFFFFFFF1 1 2 10 7 81 5 563 1345 939 452 683 561 559 567 946 947 948 9
49 950 82 1 940 13 82 52 941 0 1 1 3 0 0 3 0 1 0 1 1 2 1 1 1 850 0 1 0 0 0 0 0 0
 0 0 0 0 0 0 0 0 0 0 0 0 0 0 0 0 0 2 1 1246 0 0 0 0 0 0 0 83 43 942 .006 .0127 .
0127 82 .0127 .0127 0 .0508 15 0 6 4.917 4.773 .1 0 0 0 .04363323129985825 .1 1
 0 0 0 0 0 0 .0127 5 1 0 0 0 0 0 0 0 0 0 0 0 0 0 0 98 2 943 77 54 87 2 944 0 .00
75 .03 0 1 0 81 5 567 1417 939 352 678 565 563 0 951 952 953 954 955 82 1 946 13
 82 52 947 0 1 1 3 0 0 3 0 1 0 1 1 2 1 1 1 850 0 1 0 0 0 0 0 0 0 0 0 0 0 0 0 0 0
 0 0 0 0 0 0 0 0 2 1 1318 0 0 0 0 0 0 0 83 43 948 .006 .0127 .0127 82 .0127 .012
7 0 .0508 15 0 6 4.917 4.773 .1 0 0 0 .04363323129985825 .1 1 0 0 0 0 0 0 .0127
 5 1 0 0 0 0 0 0 0 0 0 0 0 0 0 0 98 2 949 77 54 87 2 950 -.15 .0075 .03 0 1 0 82
 1 951 13 82 52 952 0 1 1 3 0 0 3 0 1 0 1 1 2 1 1 1 850 0 1 0 0 0 0 0 0 0 0 0 0
 0 0 0 0 0 0 0 0 0 0 0 0 0 2 1 1390 0 0 0 0 0 0 0 83 43 953 .006 .0127 .0127 82
 .0127 .0127 0 .0508 15 0 6 4.917 4.773 .1 0 0 0 .04363323129985825 .1 1 0 0 0 0
 0 0 .0127 5 1 0 0 0 0 0 0 0 0 0 0 0 0 0 0 98 2 954 77 54 87 2 955 .15 .0075 .03
 0 1 0 79 255 30 945 SolidEdge/EndHoleThread_u_info82 1 689 934 82 1 684 933 82
 1 679 1609 82 1 674 1609 82 1 669 1609 80 1 581 956 957 9000 0 0 0 0 3 6 0 0 0
 FFFFTFTTFFFFFFFFF1 81 1 662 1479 958 169 641 959 0 640 960 81 1 222 1382 581 22
0 0 0 229 641 961 82 1 663 9 81 1 229 1310 581 227 0 0 236 222 962 82 1 961 17 8
1 1 236 1238 581 234 0 0 250 229 963 82 1 962 17 81 1 250 851 581 177 0 0 247 23
6 964 82 1 963 17 81 1 247 814 581 245 0 0 253 250 965 82 1 964 17 81 1 253 740
 581 155 0 0 255 247 966 82 1 965 17 81 1 255 679 581 102 0 0 259 253 967 82 1 9
66 17 81 1 259 499 581 33 0 0 101 255 968 82 1 967 17 81 1 101 495 581 87 0 0 12
7 259 969 82 1 968 17 81 1 127 385 581 124 0 0 267 101 970 82 1 969 17 81 1 267
 235 581 41 0 0 264 127 971 82 1 970 17 81 1 264 231 581 93 0 0 122 267 972 82 1
 971 17 81 1 122 121 581 120 0 0 131 264 973 82 1 972 17 81 1 131 48 581 125 0 0
 129 122 974 82 1 973 17 81 1 129 39 581 119 0 0 0 131 975 82 1 974 17 82 1 975
 17 80 1 958 595 976 9000 0 0 0 0 3 6 0 0 0 FFFFFFTFFFFFFFFFF1 81 1 959 1480 977
 169 662 184 0 189 0 81 1 640 1546 958 26 636 189 662 978 979 82 1 960 1609 81 1
 189 1547 977 26 640 186 959 980 0 81 1 978 1613 958 9 642 980 640 0 981 82 1 97
9 1613 81 1 642 1612 581 9 625 978 636 0 982 81 1 980 1614 977 9 978 24 189 0 0
 82 1 981 1614 80 1 977 983 984 8032 0 0 0 0 3 6 0 0 0 FFFFFFTFFFFFFFFFF3 81 2 2
4 1615 188 9 980 0 186 0 0 0 80 2 188 939 985 9000 2 2 2 2 3 5 0 0 0 TTTTTTTTTFF
FTTFFF1 1 79 34 985 SolidEdge/HoleThreadSplitEdge_info79 22 984 SDL/TYSA_EDGE_NO
_MERGE81 3 625 1611 623 9 0 642 619 0 986 987 0 82 1 982 9 82 1 986 5 82 1 987 1
4 81 2 184 1481 188 169 959 0 0 186 0 0 79 27 976 SolidEdge/MNKR_ATTR_ALT_CID79
 27 957 SolidEdge/MNKR_ATTR_TYPE_EX82 1 658 1613 82 1 653 1613 82 1 648 1613 82
 1 643 9 79 27 632 MONIKER/MONIKER_DATA_ATTRIB82 1 626 5 82 1 627 13 79 23 622 S
olidEdge/MNKR_ATTR_CID79 32 618 SolidEdge/StartHoleThread_u_info83 3 610 .505882
382392883 .529411792755127 .549019634723663 82 1 606 609 83 3 601 .5058823823928
83 .529411792755127 .549019634723663 82 1 598 1614 82 1 587 13 82 53 588 0 3 1 3
 0 0 3 0 1 1 1 1 2 1 1 1 850 0 1 0 0 0 0 0 0 0 0 0 0 0 0 0 0 0 0 0 0 0 0 0 0 0 2
 1 1582 1 1601 0 0 0 0 0 0 83 43 589 .006 .0127 .0127 82 .0127 .0127 0 .014 12 0
 6 4.917 4.773 .1 0 0 0 .04363323129985825 .1 1 0 0 0 0 0 0 .0127 5 1 0 0 0 0 0
 0 0 0 0 0 0 0 0 0 98 2 590 77 54 87 2 591 -.15 -37606765712409e-30 .1 0 0 1 79
 17 582 SolidEdge/Display79 16 557 SolidEdge/Styles79 15 552 SDL/TYSA_COLOUR83 1
 547 0 82 1 548 0 83 3 546 .184313729405403 .749019622802734 .580392181873322 83
 1 541 0 82 1 542 0 83 3 540 .184313729405403 .749019622802734 .580392181873322
 15 537 1395 0 988 352 989 51 356 1409 0 352 344 465 0 +.15 -.502622534299358 .0
3 0 1 0 .0024585 0 0 1 17 988 0 537 988 988 0 226 224 0 0 -15 989 1396 0 223 352
 0 17 223 0 989 223 223 0 990 220 0 0 +17 990 0 381 990 990 0 223 220 0 0 -15 38
1 1356 0 990 286 991 15 991 1284 0 992 286 993 17 992 0 991 992 992 0 230 227 0
 0 -15 993 1212 0 994 286 458 17 994 0 993 994 994 0 237 234 0 0 -17 237 0 467 2
37 237 0 994 234 0 0 +15 467 1252 0 237 383 0 17 230 0 995 230 230 0 992 227 0 0
 +15 995 1324 0 230 452 0 17 226 0 428 226 226 0 988 224 0 0 +83 3 534 .18431372
9405403 .749019622802734 .580392181873322 83 1 528 0 82 1 529 0 83 3 527 .184313
729405403 .749019622802734 .580392181873322 83 3 523 .184313729405403 .749019622
802734 .580392181873322 83 3 518 .505882382392883 .529411792755127 .549019634723
663 83 1 513 0 82 1 514 0 83 3 512 .505882382392883 .529411792755127 .5490196347
23663 83 3 508 .505882382392883 .529411792755127 .549019634723663 83 3 503 .5058
82382392883 .529411792755127 .549019634723663 79 21 499 SDL/TYSA_TRANSLUCENCY83
 1 494 0 83 1 489 0 79 21 485 SDL/TYSA_REFLECTIVITY83 1 472 0 82 1 473 0 17 466
 0 453 466 466 0 239 181 0 0 -17 239 0 996 239 239 0 466 181 0 0 +15 996 1219 0
 239 279 276 15 464 1323 0 997 452 995 17 997 0 464 997 997 0 233 231 0 0 -17 23
3 0 440 233 233 0 997 231 0 0 +15 440 1291 0 233 279 996 83 1 462 0 82 1 463 0 8
3 1 449 0 82 1 450 0 15 445 1019 0 160 395 998 17 160 0 445 160 160 0 306 158 0
 0 +15 998 1020 0 172 395 0 17 172 0 998 172 172 0 999 170 0 0 +17 999 0 396 999
 999 0 172 170 0 0 -15 396 1036 0 999 387 459 17 306 0 294 306 306 0 160 158 0 0
 -83 1 437 0 82 1 438 0 83 1 426 0 82 1 427 0 83 1 411 0 82 1 412 0 17 180 0 385
 180 180 0 397 178 0 0 +15 385 1055 0 180 360 0 83 1 393 0 82 1 394 0 17 384 0 3
72 384 384 0 183 174 0 0 -17 183 0 1000 183 183 0 384 174 0 0 +15 1000 1073 0 18
3 19 0 15 380 1072 0 157 19 1000 17 157 0 380 157 157 0 1001 145 0 0 +17 1001 0
 307 1001 1001 0 157 145 0 0 -15 307 935 0 1001 291 37 83 1 377 0 82 1 378 0 17
 369 0 359 369 369 0 219 217 0 0 -15 370 1463 0 185 318 0 17 185 0 370 185 185 0
 355 169 0 0 +17 355 0 343 355 355 0 185 169 0 0 -17 219 0 353 219 219 0 369 217
 0 0 +15 353 1441 0 219 342 0 83 1 363 0 82 1 364 0 50 354 1458 0 342 199 344 0
 +0 0 .086 0 0 -1 -1 0 0 51 199 1525 0 194 323 354 0 +.15 631207924365421e-32 .1
 0 0 -1 .0024585 0 -1 0 50 323 1526 0 198 311 199 0 +.15 631207924365421e-32 .08
6 0 0 -1 -1 0 0 15 350 1509 0 207 198 0 17 207 0 350 207 207 0 1002 204 0 0 +17
 1002 0 319 1002 1002 0 207 204 0 0 -15 319 1521 0 1002 192 190 83 1 347 0 82 1
 348 0 17 25 0 321 25 25 0 330 9 0 0 +15 321 1598 0 25 17 0 15 329 1576 0 210 19
7 0 50 322 1593 0 197 0 311 0 +-.15 -37606765712409e-30 .086 0 0 -1 -1 0 0 17 21
0 0 329 210 210 0 320 205 0 0 +17 320 0 310 320 320 0 210 205 0 0 -83 1 326 0 82
 1 327 0 83 1 316 0 82 1 317 0 83 1 300 0 82 1 301 0 17 31 0 29 27 75 76 86 94 0
 81 +17 86 0 80 70 81 73 31 94 0 88 -81 3 167 1159 1003 165 0 0 163 0 0 0 1004 8
0 3 1003 1005 1006 8000 0 0 0 0 3 6 0 0 0 FFFFFFTTFFFFFFFFF8 1 1 81 3 163 1153 1
003 161 0 0 0 167 0 0 1007 82 1 1004 2 82 1 1007 2 79 21 1006 SDL/LOP/EXTEND_TRA
CK219 18 83 0 1 0 8 4 0 S0 74 4 CI16 index_map_offset0 0 1 dCCZ20 16 16 0 0 642
 625 611 577 1008 167 567 978 980 24 586 2 550 593 599 328 0 0 0 0 81 2 1008 114
 1009 1 0 1010 0 0 1011 1012 80 2 1009 11 1013 9000 2 2 2 2 3 6 0 0 0 FFTFFFFFFF
FFFFFFF2 3 81 3 1010 1618 11 1 1008 1014 0 1014 1015 1016 1017 83 2 1011 1 58 84
 255 21 1012 SE 224.0.0.101 Type8680 3 11 1018 1019 9000 0 0 0 0 3 6 0 0 0 FFTFF
FFFFFFFFFFFF3 3 1 81 3 1014 1619 11 1 1010 12 1010 12 1020 1021 1022 84 38 1015
 {b526dfb1-eea4-4513-9eae-829a1553ed47}84 2 1016 SE82 1 1017 0 81 3 12 1620 11 1
 1014 2 1014 2 1023 1024 1025 84 38 1020 {bc99dc0b-6d02-49f0-9acb-8b022308da5d}8
4 2 1021 SE82 1 1022 1 84 38 1023 {37a779f7-5b52-41a6-be40-a3a40b17769c}84 2 102
4 SE82 1 1025 3 79 25 1019 MONIKER/GUID_TABLE_ATTRIB79 22 1013 MONIKER/BODY_ID_A
TTRIB84 38 13 {fc74dd72-23d0-401b-805a-93cf49a10b0c}84 2 14 SE82 1 15 5 1 0 
