**ABCDEFGHIJKLMNOPQRSTUVWXYZabcdefghijklmnopqrstuvwxyz**************************
**PARASOLID !"#$%&'()*+,-./:;<=>?@[\]^_`{|}~0123456789**************************
**PART1;
MC=OTTOH-DESKTOP;
MC_MODEL=unknown;
MC_ID=unknown;
OS=Windows NT;
OS_RELEASE=6.2;
FRU=Unigraphics Solutions;
APPL=SolidEdge;
SITE=Huntsville, AL;
USER=ottoh
FORMAT=text;
GUISE=transmit;
KEY=D:\Programming\CAD\HRG\HRGCADs\Doubler acoustic isolation243\shortwall243;
FILE=D:\Programming\CAD\HRG\HRGCADs\Doubler acoustic isolation243\shortwall243.x_t;
DATE=Wed, Feb 14 24;
**PART2;
SCH=SCH_3600142_36001;
USFLD_SIZE=0;
**PART3;
**END_OF_HEADER*****************************************************************
T51 : TRANSMIT FILE created by modeller version 360014223 SCH_3600142_36001_1300
6231 0 12 36 CCCI7 lattice222 0 CCCI4 mesh1006 0 I8 polyline1008 0 CCCCCCCDI5 ow
ner1040 0 CCCI16 boundary_lattice222 0 CCCI13 boundary_mesh1006 0 I17 boundary_p
olyline1008 0 CCCA16 index_map_offset0 0 1 dA9 index_map82 0 A17 node_id_index_m
ap82 0 A20 schema_embedding_map82 0 A5 child12 0 A14 lowest_node_id0 0 1 dA16 me
sh_offset_data206 0 Z1 608 2 3 0 0 0 0 0 0 0 1e3 1e-8 0 0 0 1 0 1 1 4 0 5 6 7 0
 0 8 9 10 0 0 0 0 0 0 0 81 255 3 2 526 11 1 12 0 12 0 13 14 15 70 11 CI9 list_ty
pe0 0 1 uI10 notransmit0 0 1 lCCCDCCDI12 finger_index0 0 1 dI12 finger_block1012
 0 CZ3 0 4 T1 0 0 15 20 1 16 16 13 255 4 82 0 1 0 17 0 0 18 0 50 255 5 385 0 19
 20 0 0 +.066 .00316251830161054 .023 -1 0 0 0 0 -1 31 255 6 507 0 9 21 0 0 +0 .
003162518301610545 .088 0 0 1 0 -1 0 .0024585 29 255 7 58 0 22 23 0 -.08 .010662
51830161054 0 19 9 CCCCCCI5 frame230 0 CA5 owner12 0 Z8 1 0 1 18 0 24 0 V0 16 25
5 9 504 25 ?26 0 27 6 0 0 1 18 255 10 17 0 28 0 29 30 ?1 17 255 28 0 31 32 33 10
 34 35 0 36 +18 29 11 0 33 10 37 38 ?1 29 30 20 0 10 38 39 -.08 .010662518301610
54 .1 29 38 14 0 29 40 30 .08 .01066251830161054 .1 29 39 61 0 41 30 42 -.08 -.0
04337481698389455 0 18 41 52 0 43 44 0 39 ?1 29 42 60 0 44 39 23 .08 -.004337481
698389455 0 18 44 51 0 45 46 41 42 ?1 29 23 59 0 46 42 7 .08 .01066251830161054
 0 18 46 50 0 47 22 44 23 ?1 17 47 0 48 49 50 46 51 52 0 53 +18 22 49 0 54 55 46
 7 ?1 17 54 0 56 36 53 22 57 58 0 59 +18 55 2 0 60 37 22 61 ?1 17 60 0 62 63 64
 55 65 66 0 32 -18 37 5 0 65 29 55 40 ?1 29 61 4 0 55 0 40 -.08 -.00433748169838
9455 .1 29 40 8 0 37 61 38 .08 -.004337481698389455 .1 17 65 0 31 33 32 37 60 66
 0 64 +15 255 31 25 0 32 67 0 17 33 0 31 28 65 29 68 69 0 49 +17 32 0 31 65 28 5
5 70 71 0 72 +16 66 6 0 ?65 69 71 73 0 0 1 17 64 0 62 60 45 37 50 74 0 68 -15 62
 70 0 45 75 0 17 45 0 62 64 63 44 43 76 0 50 +17 50 0 48 47 68 44 64 74 0 51 +16
 74 64 0 ?50 77 78 79 0 0 1 17 68 0 48 50 49 37 33 69 0 0 -15 48 68 0 47 80 0 17
 49 0 48 68 47 29 53 78 0 34 -16 69 12 0 ?33 35 66 81 0 0 1 16 35 18 0 ?28 82 69
 83 0 0 1 30 255 81 13 0 69 73 83 0 +.08 -.004337481698389455 .1 0 1 0 30 73 7 0
 66 84 81 0 +-.08 -.004337481698389455 .1 1 0 0 30 83 19 0 35 81 85 0 +.08 .0106
6251830161054 .1 -1 0 0 30 85 24 0 71 83 86 0 +-.08 .01066251830161054 .1 0 -1 0
 16 71 23 0 ?32 66 58 85 0 0 1 30 86 57 0 76 85 87 0 +-.08 -.004337481698389455
 0 1 0 0 16 76 43 88 ?45 52 89 86 0 0 1 30 87 56 0 52 86 90 0 +.08 -.00433748169
8389455 0 0 1 0 16 52 40 91 ?47 58 76 87 0 0 1 30 90 55 0 58 87 92 0 +.08 .01066
251830161054 0 -1 0 0 16 58 37 93 ?54 71 52 90 0 0 1 30 92 54 0 89 90 94 0 +-.08
 .01066251830161054 0 0 -1 0 16 89 46 95 ?96 76 97 92 0 0 1 30 94 78 0 82 92 98
 0 +-.08 .01066251830161054 .1 0 0 -1 16 82 62 0 ?59 78 35 94 0 0 1 30 98 79 0 7
8 94 79 0 +.08 .01066251830161054 .1 0 0 -1 16 78 63 0 ?53 74 82 98 0 0 1 30 79
 80 0 74 98 99 0 +.08 -.004337481698389455 .1 0 0 -1 30 99 81 0 77 79 100 0 +-.0
8 -.004337481698389455 .1 0 0 -1 16 77 65 0 ?63 101 74 99 0 0 1 31 100 224 0 101
 99 102 0 +-.068 .003162518301610545 .077 -1 0 0 0 0 1 .0024585 16 101 221 103 ?
104 105 77 100 0 0 1 31 102 290 0 105 100 106 0 +-.068 .00316251830161054 .023 -
1 0 0 0 0 1 .0024585 16 105 287 107 ?108 109 101 102 0 0 1 31 106 393 0 109 102
 110 0 +.066 .003162518301610545 .077 -1 0 0 0 0 1 .0024585 16 109 391 0 ?111 11
2 105 106 0 0 1 31 110 397 0 112 106 113 0 +.068 .003162518301610545 .077 -1 0 0
 0 0 1 .0024585 16 112 395 114 ?115 116 109 110 0 0 1 31 113 406 0 116 110 117 0
 +.08 .003162518301610545 .077 1 0 0 0 0 1 .0024585 16 116 404 0 ?118 119 112 11
3 0 0 1 31 117 410 0 119 113 120 0 +.066 .00316251830161054 .023 -1 0 0 0 0 1 .0
024585 16 119 408 0 ?121 122 116 117 0 0 1 31 120 414 0 122 117 21 0 +.068 .0031
6251830161054 .023 -1 0 0 0 0 1 .0024585 16 122 412 123 ?124 27 119 120 0 0 1 31
 21 423 0 27 120 6 0 +.08 .00316251830161054 .023 1 0 0 0 0 1 .0024585 16 27 421
 0 ?125 9 122 21 0 0 1 17 125 0 126 125 125 0 127 27 0 0 +15 126 382 0 125 128 0
 17 127 0 129 127 127 0 125 27 0 0 -15 129 331 0 127 80 48 14 255 80 69 130 ?131
 75 132 4 133 -0 0 131 75 24 81 2 130 590 134 80 135 0 136 137 138 139 14 131 67
 137 ?67 80 140 4 141 -0 0 67 80 24 14 75 71 136 ?80 142 143 4 144 -0 0 80 142 2
4 15 132 332 0 145 80 129 50 133 75 0 80 141 144 0 +.08 -.004337481698389455 .1
 -1 0 0 0 0 1 13 24 3 0 0 0 0 0 0 8 17 14 17 508 146 ?19 0 147 4 148 -149 149 19
 0 24 81 2 146 563 134 17 150 0 151 152 153 154 14 19 383 152 ?128 17 155 4 5 -0
 0 128 17 24 15 147 495 0 156 17 157 51 255 148 499 0 149 158 159 0 +0 .00316251
8301610545 .1 0 0 -1 .0024585 0 -1 0 14 149 489 151 ?0 160 161 4 148 -17 17 0 16
0 24 81 2 151 560 134 149 162 0 163 146 164 165 14 160 479 166 ?149 167 168 4 15
8 -0 0 149 167 24 15 161 506 0 169 149 170 17 169 0 161 169 169 0 26 9 0 0 -15 1
70 496 0 171 149 0 17 171 0 170 171 171 0 172 173 0 0 -17 172 0 174 172 172 0 17
1 173 0 0 +16 173 478 0 ?172 175 0 176 0 0 1 16 175 477 0 ?177 178 173 179 0 0 1
 31 176 503 0 173 0 179 0 +0 .003162518301610545 .1 0 0 -1 0 -1 0 .0024585 31 17
9 502 0 175 176 180 0 +0 .003162518301610545 .086 0 0 1 0 -1 0 .0024585 31 180 2
86 0 178 179 181 0 +-.08 .00316251830161054 .023 1 0 0 0 0 1 .0024585 16 178 261
 0 ?182 183 175 180 0 0 1 31 181 285 0 183 180 184 0 +-.066 .00316251830161054 .
023 -1 0 0 0 0 1 .0024585 16 183 260 0 ?185 186 178 181 0 0 1 31 184 220 0 186 1
81 187 0 +-.08 .003162518301610545 .077 1 0 0 0 0 1 .0024585 16 186 195 0 ?188 1
89 183 184 0 0 1 31 187 219 0 189 184 190 0 +-.066 .003162518301610545 .077 -1 0
 0 0 0 1 .0024585 16 189 194 0 ?191 192 186 187 0 0 1 31 190 174 0 192 187 84 0
 +0 -.004337481698389455 .03 0 -1 0 1 0 0 .0024585 16 192 140 193 ?194 97 189 19
0 0 0 1 31 84 173 0 97 190 73 0 +0 .01066251830161054 .03 0 -1 0 0 0 -1 .0024585
 16 97 138 0 ?195 89 192 84 0 0 1 17 195 0 140 195 195 0 196 97 0 0 +15 140 116
 0 195 131 56 17 196 0 197 196 196 0 195 97 0 0 -15 197 156 0 196 198 199 14 198
 151 200 ?201 202 197 4 203 -0 0 201 202 24 15 199 157 0 194 198 0 17 194 0 199
 194 194 0 204 192 0 0 +17 204 0 143 204 204 0 194 192 0 0 -15 143 123 0 204 75
 62 81 2 200 545 134 198 205 0 0 206 207 208 14 201 196 209 ?210 198 211 4 212 -
0 0 210 198 24 14 202 35 213 ?198 67 214 4 215 -0 0 198 67 24 51 203 170 0 198 2
16 217 0 +0 .1849374506090875 .03 0 -1 0 .0024585 0 0 -1 51 216 216 0 210 212 20
3 0 +-.08 .003162518301610545 .077 1 0 0 .0024585 0 0 1 50 217 29 0 67 203 215 0
 +0 0 .1 0 0 1 1 0 0 14 67 26 218 ?202 131 174 4 217 +0 0 202 131 24 50 215 53 0
 202 217 141 0 +0 0 0 0 0 1 1 0 0 50 141 74 0 131 215 133 0 +.08 .01066251830161
054 .1 0 -1 0 0 0 -1 81 2 218 596 134 67 219 0 137 213 220 221 15 174 471 0 172
 67 31 80 7 CCCCCDI12 legal_owners0 17 1 lCZ2 134 222 223 8014 0 0 0 0 3 5 0 0 0
 FFFFTFFFFFFFFFFFF2 1 81 1 219 595 224 67 225 218 226 227 228 81 2 137 593 134 1
31 226 0 130 218 229 230 81 2 213 599 134 202 227 0 218 209 231 232 83 255 1 220
 0 82 255 1 221 0 81 1 227 598 224 202 233 213 219 234 235 81 2 209 602 134 201
 234 0 213 236 237 238 83 1 231 0 82 1 232 0 81 1 234 601 224 201 239 209 227 24
0 241 81 2 236 605 134 242 240 0 209 166 243 244 83 1 237 0 82 1 238 0 14 242 26
2 236 ?167 210 245 4 159 -0 0 167 210 24 81 1 240 604 224 242 246 236 234 247 24
8 81 2 166 608 134 160 247 0 236 0 249 250 83 1 243 0 82 1 244 0 81 1 247 607 22
4 160 251 166 240 0 252 83 1 249 0 82 1 250 0 80 1 224 134 253 8015 0 0 0 0 3 5
 0 0 0 FFFFTFFFFFFFFFFFF2 81 1 251 606 254 160 255 247 246 0 256 83 1 252 0 80 1
 254 0 257 8001 0 0 0 0 3 5 0 0 0 FFFFTFTFFFFFFFFFF2 81 1 255 529 258 160 259 25
1 260 261 0 81 1 246 603 254 242 262 240 239 251 263 83 3 256 .505882382392883 .
529411792755127 .549019634723663 81 1 262 312 258 242 264 246 265 266 0 81 1 239
 600 254 201 267 234 233 246 268 83 3 263 .505882382392883 .529411792755127 .549
019634723663 81 1 267 247 258 201 269 239 270 271 0 81 1 233 597 254 202 272 227
 225 239 273 83 3 268 .505882382392883 .529411792755127 .549019634723663 81 1 27
2 113 258 202 274 233 0 275 0 81 1 225 594 254 67 260 219 276 233 277 83 3 273 .
505882382392883 .529411792755127 .549019634723663 81 1 260 528 258 67 278 225 27
9 255 0 81 1 276 591 254 131 280 226 281 225 282 83 3 277 .505882382392883 .5294
11792755127 .549019634723663 81 1 280 181 258 131 283 276 275 284 0 81 1 226 592
 224 131 276 137 135 219 285 81 1 281 588 254 80 286 135 287 276 288 83 3 282 .5
05882382392883 .529411792755127 .549019634723663 81 1 286 463 258 80 289 281 290
 279 0 81 1 135 589 224 80 281 130 291 226 292 81 1 287 585 254 75 275 291 293 2
81 294 83 3 288 .505882382392883 .529411792755127 .549019634723663 81 1 275 180
 258 75 295 287 272 280 0 81 1 291 586 224 75 287 136 296 135 297 81 1 293 582 2
54 142 265 296 298 287 299 83 3 294 .505882382392883 .529411792755127 .549019634
723663 14 142 73 300 ?75 301 302 4 303 -0 0 75 301 24 81 1 265 311 258 142 304 2
93 305 262 0 81 1 296 583 224 142 293 300 306 291 307 81 1 298 579 254 301 270 3
06 308 293 309 83 3 299 .505882382392883 .529411792755127 .549019634723663 14 30
1 225 310 ?142 311 312 4 216 -210 210 142 311 24 81 1 270 245 258 301 313 298 28
4 267 0 81 1 306 580 224 301 298 310 314 296 315 81 1 308 576 254 311 305 314 31
6 298 317 83 3 309 .505882382392883 .529411792755127 .549019634723663 14 311 291
 318 ?301 319 320 4 321 -167 167 301 319 24 81 1 305 310 258 311 322 308 271 265
 0 81 1 314 577 224 311 308 318 323 306 324 81 1 316 573 254 319 290 323 325 308
 326 83 3 317 .505882382392883 .529411792755127 .549019634723663 14 319 333 327
 ?311 328 329 4 330 -328 328 311 328 24 81 1 290 462 258 319 331 316 332 286 0 8
1 1 323 574 224 319 316 327 333 314 334 81 1 325 570 254 335 336 333 337 316 338
 83 3 326 .505882382392883 .529411792755127 .549019634723663 14 335 354 339 ?328
 340 341 4 342 -0 0 328 340 24 81 1 336 460 258 335 343 325 344 332 0 81 1 333 5
71 224 335 325 339 345 323 346 81 1 337 567 254 340 344 345 347 325 348 83 3 338
 .505882382392883 .529411792755127 .549019634723663 14 340 362 349 ?335 128 350
 4 20 -128 128 335 128 24 81 1 344 459 258 340 351 337 352 336 0 81 1 345 568 22
4 340 337 349 353 333 354 81 1 347 564 254 19 355 353 356 337 357 83 3 348 .5058
82382392883 .529411792755127 .549019634723663 81 1 355 457 258 19 358 347 266 35
2 0 81 1 353 565 224 19 347 152 150 345 359 81 1 356 561 254 17 279 150 360 347
 361 83 3 357 .505882382392883 .529411792755127 .549019634723663 81 1 279 527 25
8 17 362 356 286 260 0 81 1 150 562 224 17 356 146 162 353 363 81 1 360 558 254
 149 364 162 365 356 366 83 3 361 .505882382392883 .529411792755127 .54901963472
3663 81 1 364 537 367 149 261 360 0 368 369 81 1 162 559 224 149 360 151 370 150
 371 81 1 365 555 254 128 368 370 372 360 373 83 3 366 .184313729405403 .7490196
22802734 .580392181873322 14 128 375 163 ?340 19 374 4 20 -340 340 340 19 24 81
 1 368 538 367 128 352 365 364 375 376 81 1 370 556 224 128 365 163 377 162 378
 81 1 372 552 254 328 375 377 379 365 380 83 3 373 .184313729405403 .74901962280
2734 .580392181873322 14 328 346 381 ?319 335 382 4 330 -319 319 319 335 24 81 1
 375 539 367 328 332 372 368 383 384 81 1 377 553 224 328 372 381 385 370 386 81
 1 379 549 254 167 383 385 387 372 388 83 3 380 .184313729405403 .74901962280273
4 .580392181873322 14 167 272 389 ?160 242 390 4 321 -311 311 160 242 24 81 1 38
3 540 367 167 266 379 375 391 392 81 1 385 550 224 167 379 389 393 377 394 81 1
 387 546 254 210 391 393 395 379 396 83 3 388 .184313729405403 .749019622802734
 .580392181873322 14 210 206 206 ?242 201 397 4 216 -301 301 242 201 24 81 1 391
 541 367 210 271 387 383 398 399 81 1 393 547 224 210 387 206 205 385 400 81 1 3
95 543 254 198 398 205 0 387 401 83 3 396 .184313729405403 .749019622802734 .580
392181873322 81 1 398 542 367 198 284 395 391 0 402 81 1 205 544 224 198 395 200
 0 393 403 83 3 401 .184313729405403 .749019622802734 .580392181873322 83 1 403
 0 80 1 367 404 405 9000 0 0 0 0 3 5 0 0 0 FFTTTTTTFFFFTFFFF1 81 1 284 182 258 1
98 406 398 280 270 0 82 5 402 2 -2147483598 0 0 0 80 1 258 407 408 9000 1 1 1 1
 1 1 1 1 0 FFFFTFTTFFFFFFFFF1 81 5 406 178 409 198 410 284 0 0 411 412 413 414 4
15 80 5 409 416 417 9000 2 2 2 2 3 5 0 0 0 FFFFTFFFFFFFFFFFF1 1 2 10 7 81 1 410
 152 418 198 419 406 304 269 420 82 1 411 13 82 52 412 0 1 1 3 0 0 3 0 1 0 1 1 2
 1 1 1 850 0 1 0 0 0 0 0 0 0 0 0 0 0 0 0 0 0 0 0 0 0 0 0 0 0 2 1 151 0 0 0 0 0 0
 0 83 43 413 .006 .0127 .0127 82 .0127 .0127 0 .0508 15 0 6 4.917 4.773 .1 0 0 0
 .04363323129985825 .1 1 0 0 0 0 0 0 .0127 5 1 0 0 0 0 0 0 0 0 0 0 0 0 0 0 98 25
5 2 414 77 54 87 255 2 415 0 -.004337481698389455 .03 0 -1 0 80 1 418 421 422 90
00 0 0 0 0 3 6 0 0 0 FFFFTFFFFFFFFFFFF1 81 3 419 155 423 198 0 410 424 425 426 4
27 0 81 1 304 106 418 142 424 265 295 410 428 81 1 269 197 418 201 425 267 410 4
29 430 82 1 420 443 81 3 425 199 423 201 0 269 419 431 432 433 0 81 1 429 208 41
8 210 431 434 269 435 436 82 1 430 780 81 3 431 211 423 210 0 429 425 437 438 43
9 0 81 5 434 241 416 210 429 271 0 313 440 441 442 443 444 81 1 435 235 418 301
 437 313 429 264 445 82 1 436 780 81 3 437 231 423 301 0 435 431 446 447 448 0 8
1 5 313 242 416 301 435 270 434 449 450 451 452 453 454 81 1 264 263 418 242 455
 262 435 456 457 82 1 445 780 81 3 455 265 423 242 0 264 446 458 459 460 0 81 1
 456 274 418 167 458 449 264 461 462 82 1 457 784 81 3 458 277 423 167 0 456 455
 463 464 465 0 81 5 449 306 416 167 456 266 313 322 466 467 468 469 470 81 1 461
 300 418 311 463 322 456 331 471 82 1 462 784 81 3 463 297 423 311 0 461 458 472
 473 474 0 81 5 322 307 416 311 461 305 449 475 476 477 478 479 480 81 1 331 427
 418 319 481 290 461 482 483 82 1 471 784 81 3 481 425 423 319 475 331 472 484 4
85 486 0 81 1 482 433 418 328 484 332 331 343 487 82 1 483 799 81 3 484 431 423
 328 488 482 481 489 490 491 0 81 1 332 461 258 328 482 375 336 290 0 81 1 343 4
39 418 335 492 336 482 351 493 82 1 487 799 81 3 492 437 423 335 0 343 489 494 4
95 496 0 81 1 351 442 418 340 494 344 343 497 498 82 1 493 799 81 3 494 440 423
 340 499 351 492 500 501 502 0 81 1 497 448 418 128 500 352 351 358 503 82 1 498
 799 81 3 500 446 423 128 504 497 494 505 506 507 0 81 1 352 458 258 128 497 368
 355 344 0 81 1 358 454 418 19 508 355 497 259 509 82 1 503 799 81 3 508 452 423
 19 0 358 505 510 511 512 0 81 1 259 480 418 160 510 255 358 513 514 82 1 509 79
9 81 3 510 482 423 160 0 259 508 515 516 517 0 81 1 513 491 418 149 515 518 259
 519 520 82 1 514 1009 81 3 515 494 423 149 0 513 510 521 522 523 0 81 5 518 523
 416 149 513 261 504 362 524 525 526 527 528 81 1 519 517 418 17 521 362 513 0 5
29 82 1 520 1009 81 3 521 514 423 17 0 519 515 530 531 532 0 81 5 362 524 416 17
 519 279 518 0 533 534 535 536 537 82 1 529 1009 80 5 416 538 539 9000 2 2 2 2 3
 5 0 0 0 FFFFTFFFFFFFFFFFF1 1 2 10 7 82 1 533 13 82 53 534 0 3 1 3 0 0 3 0 1 1 1
 1 2 1 2 1 850 0 1 0 0 0 0 0 0 0 0 0 0 0 0 0 0 0 0 0 0 0 0 0 0 0 2 1 489 1 508 0
 0 0 0 0 0 83 43 535 .006 .0127 .0127 82 .0127 .0127 0 .014 12 0 6 4.917 4.773 .
1 0 0 0 .04363323129985825 .1 1 0 0 0 0 0 0 .0127 5 1 0 0 0 0 0 0 0 0 0 0 0 0 0
 0 98 2 536 77 54 87 2 537 0 .003162518301610545 .1 0 0 1 79 255 32 539 SolidEdg
e/StartHoleThread_u_info80 3 423 540 541 9000 0 0 0 0 3 6 0 0 0 FFFFTFTTFFFFFFFF
F1 1 3 81 3 530 518 423 9 0 542 521 0 543 544 0 82 1 531 2 82 1 532 23 81 1 542
 519 407 9 530 545 546 0 547 82 1 543 2 82 1 544 24 80 1 407 548 549 9000 0 0 0
 0 3 6 0 0 0 FFFFTFTTFFFFFFFFF1 81 1 545 520 550 9 542 551 123 0 552 81 1 546 45
0 407 122 505 123 553 542 554 82 1 547 9 81 3 505 449 423 122 555 546 500 508 55
6 557 0 81 1 123 451 550 122 546 0 114 545 558 81 1 553 435 407 112 489 114 559
 546 560 82 1 554 9 81 3 489 434 423 112 561 553 484 492 562 563 0 81 1 114 436
 550 112 553 0 564 123 565 81 1 559 302 407 105 472 564 566 553 567 82 1 560 9 8
1 3 472 301 423 105 0 559 463 481 568 569 0 81 1 564 303 550 105 559 570 571 114
 572 81 1 566 237 407 101 446 571 193 559 573 82 1 567 9 81 3 446 236 423 101 0
 566 437 455 574 575 0 81 1 571 238 550 101 566 576 0 564 577 81 1 193 143 407 1
92 0 0 95 566 578 82 1 573 9 81 1 95 48 407 89 0 0 88 193 579 82 1 578 17 81 1 8
8 45 407 76 0 0 91 95 580 82 1 579 17 81 1 91 42 407 52 0 0 93 88 581 82 1 580 1
7 81 1 93 39 407 58 0 0 0 91 582 82 1 581 17 82 1 582 17 80 1 550 418 583 9000 0
 0 0 0 3 6 0 0 0 FFFFFFTFFFFFFFFFF1 81 1 576 239 584 101 571 103 0 570 0 82 1 57
7 780 80 1 584 585 586 8032 0 0 0 0 3 6 0 0 0 FFFFFFTFFFFFFFFFF3 81 2 103 240 58
7 101 576 0 0 107 0 0 81 1 570 304 584 105 564 107 576 561 0 81 2 107 305 587 10
5 570 0 103 588 0 0 81 1 561 400 584 112 588 489 570 555 0 81 2 588 399 587 112
 0 561 107 589 0 0 81 1 555 417 584 122 589 505 561 551 0 81 2 589 416 587 122 0
 555 588 25 0 0 81 1 551 521 584 9 545 25 555 0 0 81 2 25 522 587 9 551 0 589 0
 0 0 80 2 587 409 590 9000 2 2 2 2 3 5 0 0 0 TTTTTTTTTFFFTTFFF1 1 79 34 590 Soli
dEdge/HoleThreadSplitEdge_info79 22 586 SDL/TYSA_EDGE_NO_MERGE79 27 583 SolidEdg
e/MNKR_ATTR_ALT_CID82 1 574 2 82 1 575 4 82 1 572 784 82 1 568 2 82 1 569 9 82 1
 565 799 82 1 562 2 82 1 563 13 82 1 558 799 82 1 556 2 82 1 557 18 82 1 552 100
9 79 27 549 SolidEdge/MNKR_ATTR_TYPE_EX79 27 541 MONIKER/MONIKER_DATA_ATTRIB81 1
 261 530 258 149 518 364 255 0 0 81 5 504 378 416 128 0 500 499 518 591 592 593
 594 595 82 1 524 13 82 53 525 0 3 1 3 0 0 3 0 1 1 1 1 2 1 1 1 850 0 1 0 0 0 0 0
 0 0 0 0 0 0 0 0 0 0 0 0 0 0 0 0 0 0 2 1 489 1 508 0 0 0 0 0 0 83 43 526 .006 .0
127 .0127 82 .0127 .0127 0 .014 12 0 6 4.917 4.773 .1 0 0 0 .04363323129985825 .
1 1 0 0 0 0 0 0 .0127 5 1 0 0 0 0 0 0 0 0 0 0 0 0 0 0 98 2 527 77 54 87 2 528 0
 .003162518301610545 .1 0 0 1 81 5 499 367 416 340 0 494 488 504 596 597 598 599
 600 82 1 591 13 82 53 592 0 3 1 3 0 0 3 0 1 1 1 1 2 1 1 1 850 0 1 0 0 0 0 0 0 0
 0 0 0 0 0 0 0 0 0 0 0 0 0 0 0 0 2 1 375 1 362 0 0 0 0 0 0 83 43 593 .006 .0127
 .0127 82 .0127 .0127 0 .014 12 0 6 4.917 4.773 .1 0 0 0 .04363323129985825 .1 1
 0 0 0 0 0 0 .0127 5 1 0 0 0 0 0 0 0 0 0 0 0 0 0 0 98 2 594 77 54 87 2 595 .08 .
00316251830161054 .023 1 0 0 81 5 488 349 416 328 0 484 475 499 601 602 603 604
 605 82 1 596 13 82 53 597 0 3 1 3 0 0 3 0 1 1 1 1 2 1 2 1 850 0 1 0 0 0 0 0 0 0
 0 0 0 0 0 0 0 0 0 0 0 0 0 0 0 0 2 1 375 1 362 0 0 0 0 0 0 83 43 598 .006 .0127
 .0127 82 .0127 .0127 0 .014 12 0 6 4.917 4.773 .1 0 0 0 .04363323129985825 .1 1
 0 0 0 0 0 0 .0127 5 1 0 0 0 0 0 0 0 0 0 0 0 0 0 0 98 2 599 77 54 87 2 600 .08 .
00316251830161054 .023 1 0 0 81 5 475 338 416 319 0 481 322 488 606 607 608 609
 610 82 1 601 13 82 53 602 0 3 1 3 0 0 3 0 1 1 1 1 2 1 1 1 850 0 1 0 0 0 0 0 0 0
 0 0 0 0 0 0 0 0 0 0 0 0 0 0 0 0 2 1 346 1 333 0 0 0 0 0 0 83 43 603 .006 .0127
 .0127 82 .0127 .0127 0 .014 12 0 6 4.917 4.773 .1 0 0 0 .04363323129985825 .1 1
 0 0 0 0 0 0 .0127 5 1 0 0 0 0 0 0 0 0 0 0 0 0 0 0 98 2 604 77 54 87 2 605 .08 .
003162518301610545 .077 1 0 0 82 1 606 13 82 53 607 0 3 1 3 0 0 3 0 1 1 1 1 2 1
 2 1 850 0 1 0 0 0 0 0 0 0 0 0 0 0 0 0 0 0 0 0 0 0 0 0 0 0 2 1 346 1 333 0 0 0 0
 0 0 83 43 608 .006 .0127 .0127 82 .0127 .0127 0 .014 12 0 6 4.917 4.773 .1 0 0
 0 .04363323129985825 .1 1 0 0 0 0 0 0 .0127 5 1 0 0 0 0 0 0 0 0 0 0 0 0 0 0 98
 2 609 77 54 87 2 610 .08 .003162518301610545 .077 1 0 0 82 1 522 2 82 1 523 20
 82 1 516 2 82 1 517 22 82 1 511 2 82 1 512 19 82 1 506 2 82 1 507 17 82 1 501 2
 82 1 502 15 82 1 495 2 82 1 496 14 82 1 490 2 82 1 491 12 82 1 485 2 82 1 486 1
0 82 1 476 13 82 53 477 0 3 1 3 0 0 3 0 1 1 1 1 2 1 2 1 850 0 1 0 0 0 0 0 0 0 0
 0 0 0 0 0 0 0 0 0 0 0 0 0 0 0 2 1 272 1 291 0 0 0 0 0 0 83 43 478 .006 .0127 .0
127 82 .0127 .0127 0 .014 12 0 6 4.917 4.773 .1 0 0 0 .04363323129985825 .1 1 0
 0 0 0 0 0 .0127 5 1 0 0 0 0 0 0 0 0 0 0 0 0 0 0 98 2 479 77 54 87 2 480 -.08 .0
0316251830161054 .023 -1 0 0 82 1 473 2 82 1 474 8 81 1 266 313 258 167 449 383
 262 355 0 82 1 466 13 82 53 467 0 3 1 3 0 0 3 0 1 1 1 1 2 1 1 1 850 0 1 0 0 0 0
 0 0 0 0 0 0 0 0 0 0 0 0 0 0 0 0 0 0 0 2 1 272 1 291 0 0 0 0 0 0 83 43 468 .006
 .0127 .0127 82 .0127 .0127 0 .014 12 0 6 4.917 4.773 .1 0 0 0 .0436332312998582
5 .1 1 0 0 0 0 0 0 .0127 5 1 0 0 0 0 0 0 0 0 0 0 0 0 0 0 98 2 469 77 54 87 2 470
 -.08 .00316251830161054 .023 -1 0 0 82 1 464 2 82 1 465 5 82 1 459 2 82 1 460 7
 82 1 450 13 82 53 451 0 3 1 3 0 0 3 0 1 1 1 1 2 1 2 1 850 0 1 0 0 0 0 0 0 0 0 0
 0 0 0 0 0 0 0 0 0 0 0 0 0 0 2 1 206 1 225 0 0 0 0 0 0 83 43 452 .006 .0127 .012
7 82 .0127 .0127 0 .014 12 0 6 4.917 4.773 .1 0 0 0 .04363323129985825 .1 1 0 0
 0 0 0 0 .0127 5 1 0 0 0 0 0 0 0 0 0 0 0 0 0 0 98 2 453 77 54 87 2 454 -.08 .003
162518301610545 .077 -1 0 0 82 1 447 2 82 1 448 3 81 1 271 248 258 210 434 391 2
67 305 0 82 1 440 13 82 53 441 0 3 1 3 0 0 3 0 1 1 1 1 2 1 1 1 850 0 1 0 0 0 0 0
 0 0 0 0 0 0 0 0 0 0 0 0 0 0 0 0 0 0 2 1 206 1 225 0 0 0 0 0 0 83 43 442 .006 .0
127 .0127 82 .0127 .0127 0 .014 12 0 6 4.917 4.773 .1 0 0 0 .04363323129985825 .
1 1 0 0 0 0 0 0 .0127 5 1 0 0 0 0 0 0 0 0 0 0 0 0 0 0 98 2 443 77 54 87 2 444 -.
08 .003162518301610545 .077 -1 0 0 82 1 438 2 82 1 439 0 82 1 432 2 82 1 433 2 8
1 3 424 103 423 142 0 304 611 419 612 613 0 81 1 295 102 418 75 611 275 289 304
 614 82 1 428 396 81 3 611 99 423 75 0 295 615 424 616 617 0 81 1 289 98 418 80
 615 286 283 295 618 82 1 614 396 81 3 615 95 423 80 0 289 619 611 620 621 0 81
 1 283 94 418 131 619 280 274 289 622 82 1 618 396 81 3 619 91 423 131 0 283 623
 615 624 625 0 81 1 274 90 418 202 623 272 278 283 626 82 1 622 396 81 3 623 88
 423 202 0 274 627 619 628 629 0 81 1 278 87 418 67 627 260 0 274 630 82 1 626 3
96 81 3 627 84 423 67 0 278 0 623 631 632 0 82 1 630 396 82 1 631 0 82 1 632 0 8
2 1 628 0 82 1 629 1 82 1 624 0 82 1 625 2 82 1 620 0 82 1 621 3 82 1 616 0 82 1
 617 4 82 1 612 0 82 1 613 5 82 1 426 0 82 1 427 8 79 23 422 SolidEdge/MNKR_ATTR
_CID79 30 417 SolidEdge/EndHoleThread_u_info79 17 408 SolidEdge/Display79 16 405
 SolidEdge/Styles81 2 206 548 134 210 393 0 200 389 633 634 83 1 400 0 81 2 389
 551 134 167 385 0 206 381 635 636 83 1 633 0 82 1 634 0 81 2 381 554 134 328 37
7 0 389 163 637 638 83 1 635 0 82 1 636 0 81 2 163 557 134 128 370 0 381 151 639
 640 83 1 637 0 82 1 638 0 83 1 639 0 82 1 640 0 82 5 399 2 -2147483598 0 0 0 15
 397 223 0 641 210 642 17 641 0 397 641 641 0 104 101 0 0 -15 642 213 0 643 210
 0 17 643 0 642 643 643 0 188 186 0 0 -17 188 0 644 188 188 0 643 186 0 0 +15 64
4 187 0 188 142 645 15 645 72 0 96 142 0 17 96 0 645 72 59 41 646 89 0 0 +17 72
 0 645 70 96 55 63 77 0 0 -17 59 0 645 96 70 22 36 82 0 646 +17 646 0 214 57 43
 22 96 89 0 0 -15 214 36 0 646 202 0 17 57 0 214 51 646 46 54 58 0 0 -17 43 0 21
4 646 51 41 45 76 0 63 -17 51 0 214 43 57 44 47 52 0 0 -17 63 0 62 45 60 41 72 7
7 0 96 +17 70 0 645 59 72 10 32 71 0 0 -17 36 0 56 34 54 10 59 82 0 70 -15 56 66
 0 54 131 0 17 34 0 56 53 36 29 28 35 0 0 -17 53 0 56 54 34 46 49 78 0 57 +17 10
4 0 647 104 104 0 641 101 0 0 +15 647 222 0 104 301 0 83 1 394 0 82 5 392 2 -214
7483598 0 0 0 15 390 289 0 648 167 649 51 321 282 0 167 159 212 0 +-.08 .0031625
1830161054 .023 1 0 0 .0024585 0 0 1 50 159 283 0 242 148 321 0 +-.066 .00316251
830161054 .023 1 0 0 0 0 -1 50 212 217 0 201 321 216 0 +-.066 .00316251830161054
5 .077 1 0 0 0 0 -1 17 648 0 390 648 648 0 108 105 0 0 -15 649 279 0 650 167 0 1
7 650 0 649 650 650 0 182 178 0 0 -17 182 0 302 182 182 0 650 178 0 0 +15 302 25
3 0 182 142 644 17 108 0 651 108 108 0 648 105 0 0 +15 651 288 0 108 311 0 83 1
 386 0 82 5 384 2 -2147483598 0 0 0 15 382 352 0 115 328 652 51 330 335 0 319 30
3 342 0 +.08 .003162518301610545 .077 -1 0 0 .0024585 0 0 1 50 303 77 0 142 144
 330 0 +-.08 .01066251830161054 .1 1 0 0 0 0 -1 50 342 356 0 335 330 20 0 +.066
 .003162518301610545 .077 -1 0 0 0 0 -1 51 20 364 0 340 342 5 0 +.08 .0031625183
0161054 .023 -1 0 0 .0024585 0 0 1 50 144 76 0 75 133 303 0 +-.08 -.004337481698
389455 .1 0 1 0 0 0 1 17 115 0 382 115 115 0 653 112 0 0 +15 652 353 0 118 328 0
 17 118 0 652 118 118 0 145 116 0 0 +17 145 0 132 145 145 0 118 116 0 0 -17 653
 0 654 653 653 0 115 112 0 0 -15 654 345 0 653 319 0 83 1 378 0 82 5 376 2 -2147
483598 0 0 0 15 374 381 0 124 128 126 17 124 0 374 124 124 0 655 122 0 0 +17 655
 0 656 655 655 0 124 122 0 0 -15 656 374 0 655 340 0 83 1 371 0 82 5 369 2 -2147
483598 0 0 0 83 1 363 0 81 2 152 566 134 19 353 0 146 349 657 658 83 1 359 0 81
 2 349 569 134 340 345 0 152 339 659 660 83 1 657 0 82 1 658 0 81 2 339 572 134
 335 333 0 349 327 661 662 83 1 659 0 82 1 660 0 81 2 327 575 134 319 323 0 339
 318 663 664 83 1 661 0 82 1 662 0 81 2 318 578 134 311 314 0 327 310 665 666 83
 1 663 0 82 1 664 0 81 2 310 581 134 301 306 0 318 300 667 668 83 1 665 0 82 1 6
66 0 81 2 300 584 134 142 296 0 310 136 669 670 83 1 667 0 82 1 668 0 81 2 136 5
87 134 75 291 0 300 130 671 672 83 1 669 0 82 1 670 0 83 1 671 0 82 1 672 0 83 1
 354 0 15 350 373 0 121 340 656 17 121 0 350 121 121 0 673 119 0 0 +17 673 0 155
 673 673 0 121 119 0 0 -15 155 390 0 673 19 0 83 1 346 0 15 341 361 0 674 335 0
 17 674 0 341 674 674 0 111 109 0 0 -17 111 0 329 111 111 0 674 109 0 0 +15 329
 344 0 111 319 654 83 1 334 0 83 1 324 0 15 320 278 0 675 311 651 17 675 0 320 6
75 675 0 185 183 0 0 -17 185 0 245 185 185 0 675 183 0 0 +15 245 266 0 185 242 0
 83 1 315 0 15 312 212 0 676 301 647 17 676 0 312 676 676 0 191 189 0 0 -17 191
 0 211 191 191 0 676 189 0 0 +15 211 200 0 191 201 0 83 1 307 0 83 1 297 0 83 1
 292 0 83 1 285 0 79 15 257 SDL/TYSA_COLOUR79 21 253 SDL/TYSA_TRANSLUCENCY83 1 2
48 0 83 1 241 0 83 1 235 0 83 1 229 0 82 1 230 0 83 1 228 0 79 21 223 SDL/TYSA_R
EFLECTIVITY83 1 207 0 82 1 208 0 17 177 0 168 177 177 0 156 175 0 0 +15 168 483
 0 177 160 0 17 156 0 147 156 156 0 177 175 0 0 -17 26 0 157 26 26 0 169 9 0 0 +
15 157 505 0 26 17 0 50 158 500 0 160 0 148 0 +0 .003162518301610545 .086 0 0 -1
 -1 0 0 83 1 164 0 82 1 165 0 83 1 153 0 82 1 154 0 83 1 138 0 82 1 139 0 19 18
 83 0 1 0 8 4 0 S0 74 4 CI16 index_map_offset0 0 1 dCCZ20 16 15 0 0 542 530 519
 261 677 406 545 551 25 362 2 398 251 247 166 0 0 0 0 0 81 2 677 114 678 1 0 12
 0 0 679 680 80 2 678 11 681 9000 2 2 2 2 3 6 0 0 0 FFTFFFFFFFFFFFFFF2 3 81 3 12
 525 11 1 677 2 0 2 682 683 684 83 2 679 1 25 84 255 21 680 SE 224.0.0.101 Type8
680 3 11 685 686 9000 0 0 0 0 3 6 0 0 0 FFTFFFFFFFFFFFFFF3 3 1 84 38 682 {89738e
b3-d9ec-4da0-9bc4-90547b71149a}84 2 683 SE82 1 684 0 79 25 686 MONIKER/GUID_TABL
E_ATTRIB79 22 681 MONIKER/BODY_ID_ATTRIB84 38 13 {2dc7995d-a284-467a-aa91-1b23a3
768648}84 2 14 SE82 1 15 2 1 0 
