**ABCDEFGHIJKLMNOPQRSTUVWXYZabcdefghijklmnopqrstuvwxyz**************************
**PARASOLID !"#$%&'()*+,-./:;<=>?@[\]^_`{|}~0123456789**************************
**PART1;
MC=OTTOH-DESKTOP;
MC_MODEL=unknown;
MC_ID=unknown;
OS=Windows NT;
OS_RELEASE=6.2;
FRU=Unigraphics Solutions;
APPL=SolidEdge;
SITE=Huntsville, AL;
USER=ottoh
FORMAT=text;
GUISE=transmit;
KEY=D:\Programming\CAD\HRG\HRGCADs\Doubler acoustic isolation243\top243;
FILE=D:\Programming\CAD\HRG\HRGCADs\Doubler acoustic isolation243\top243.x_t;
DATE=Wed, Feb 14 24;
**PART2;
SCH=SCH_3600142_36001;
USFLD_SIZE=0;
**PART3;
**END_OF_HEADER*****************************************************************
T51 : TRANSMIT FILE created by modeller version 360014223 SCH_3600142_36001_1300
6231 0 12 36 CCCI7 lattice222 0 CCCI4 mesh1006 0 I8 polyline1008 0 CCCCCCCDI5 ow
ner1040 0 CCCI16 boundary_lattice222 0 CCCI13 boundary_mesh1006 0 I17 boundary_p
olyline1008 0 CCCA16 index_map_offset0 0 1 dA9 index_map82 0 A17 node_id_index_m
ap82 0 A20 schema_embedding_map82 0 A5 child12 0 A14 lowest_node_id0 0 1 dA16 me
sh_offset_data206 0 Z1 1101 2 3 0 0 0 0 0 0 0 1e3 1e-8 0 0 0 1 0 1 1 4 0 5 6 7 0
 0 8 9 10 0 0 0 0 0 0 0 81 255 3 2 1003 11 1 12 0 0 0 13 14 15 70 11 CI9 list_ty
pe0 0 1 uI10 notransmit0 0 1 lCCCDCCDI12 finger_index0 0 1 dI12 finger_block1012
 0 CZ3 0 4 T1 0 0 11 20 1 16 16 13 255 4 82 0 1 0 17 0 0 18 0 51 255 5 579 0 17
 19 0 0 -0 .0835 -.135877668082597 0 0 1 .0031 1 0 0 31 255 6 820 0 20 21 0 0 +.
2425 979847998678129e-33 .009 0 0 -1 -1 0 0 .0031 29 255 7 58 0 22 23 0 .25 -.09
1 0 19 9 CCCCCCI5 frame230 0 CA5 owner12 0 Z8 1 0 1 18 0 24 0 V0 16 255 9 633 0
 ?25 0 26 27 0 0 1 18 255 10 17 0 28 0 29 30 ?1 17 255 28 0 31 32 33 10 34 35 0
 36 +18 29 11 0 33 10 37 38 ?1 29 30 20 0 10 38 39 .25 -.091 .015 29 38 14 0 29
 40 30 -.25 -.091 .015 29 39 61 0 41 30 42 .25 .091 0 18 41 52 0 43 44 0 39 ?1 2
9 42 60 0 44 39 23 -.25 .091 0 18 44 51 0 45 46 41 42 ?1 29 23 59 0 46 42 7 -.25
 -.091 0 18 46 50 0 47 22 44 23 ?1 17 47 0 48 49 50 46 51 52 0 53 +18 22 49 0 54
 55 46 7 ?1 17 54 0 56 36 53 22 57 58 0 59 +18 55 2 0 60 37 22 61 ?1 17 60 0 62
 63 64 55 65 66 0 32 -18 37 5 0 65 29 55 40 ?1 29 61 4 0 55 0 40 .25 .091 .015 2
9 40 8 0 37 61 38 -.25 .091 .015 17 65 0 31 33 32 37 60 66 0 64 +15 255 31 25 0
 32 67 0 17 33 0 31 28 65 29 68 69 0 49 +17 32 0 31 65 28 55 70 71 0 72 +16 66 6
 0 ?65 69 71 73 0 0 1 17 64 0 62 60 45 37 50 74 0 68 -15 62 70 0 45 75 0 17 45 0
 62 64 63 44 43 76 0 50 +17 50 0 48 47 68 44 64 74 0 51 +16 74 64 0 ?50 77 78 79
 0 0 1 17 68 0 48 50 49 37 33 69 0 0 -15 48 68 0 47 80 0 17 49 0 48 68 47 29 53
 78 0 34 -16 69 12 0 ?33 35 66 81 0 0 1 16 35 18 0 ?28 82 69 83 0 0 1 30 255 81
 13 0 69 73 83 0 +-.25 .091 .015 0 -1 0 30 73 7 0 66 84 81 0 +.25 .091 .015 -1 1
110223024625156e-31 0 30 83 19 0 35 81 85 0 +-.25 -.091 .015 1 -1110223024625156
e-31 0 30 85 24 0 71 83 86 0 +.25 -.091 .015 0 1 0 16 71 23 0 ?32 66 58 85 0 0 1
 30 86 57 0 76 85 87 0 +.25 .091 0 -1 1110223024625156e-31 0 16 76 43 88 ?45 52
 89 86 0 0 1 30 87 56 0 52 86 90 0 +-.25 .091 0 0 -1 0 16 52 40 91 ?47 58 76 87
 0 0 1 30 90 55 0 58 87 92 0 +-.25 -.091 0 1 -1110223024625156e-31 0 16 58 37 93
 ?54 71 52 90 0 0 1 30 92 54 0 89 90 94 0 +.25 -.091 0 0 1 0 16 89 46 95 ?96 76
 97 92 0 0 1 30 94 78 0 82 92 98 0 +.25 -.091 .015 0 0 -1 16 82 62 0 ?59 78 35 9
4 0 0 1 30 98 79 0 78 94 79 0 +-.25 -.091 .015 0 0 -1 16 78 63 0 ?53 74 82 98 0
 0 1 30 79 80 0 74 98 99 0 +-.25 .091 .015 0 0 -1 30 99 81 0 77 79 100 0 +.25 .0
91 .015 0 0 -1 16 77 65 0 ?63 101 74 99 0 0 1 31 100 118 0 102 99 103 0 --.15 -.
0835 0 0 0 1 1 0 0 .0031 16 102 222 0 ?104 105 106 100 0 0 1 31 103 125 0 105 10
0 107 0 -.15 -.0835 0 0 0 1 1 0 0 .0031 16 105 192 0 ?108 97 102 103 0 0 1 31 10
7 132 0 97 103 109 0 -0 -.0835 0 0 0 1 1 0 0 .0031 16 97 162 0 ?110 89 105 107 0
 0 1 31 109 282 0 111 107 112 0 +0 -.0835 .009 0 0 -1 -1 0 0 .0031 16 111 322 0
 ?113 114 115 109 0 0 1 31 112 289 0 114 109 116 0 +.15 -.0835 .009 0 0 -1 -1 0
 0 .0031 16 114 358 0 ?117 106 111 112 0 0 1 31 116 296 0 106 112 118 0 +-.15 -.
0835 .009 0 0 -1 -1 0 0 .0031 16 106 394 0 ?119 102 114 116 0 0 1 31 118 588 0 1
01 116 120 0 +-.15 .0835 .009 0 0 1 1 0 0 .00515 16 101 586 0 ?121 122 77 118 0
 0 1 31 120 592 0 122 118 123 0 +-.15 .0835 .015 0 0 1 1 0 0 .00515 16 122 590 1
24 ?125 126 101 120 0 0 1 31 123 597 0 126 120 127 0 +-.15 .0835 .009 0 0 1 -1 0
 0 .0031 16 126 595 0 ?128 129 122 123 0 0 1 31 127 601 0 129 123 130 0 +.15 .08
35 .009 0 0 1 1 0 0 .00515 16 129 599 0 ?131 132 126 127 0 0 1 31 130 605 0 132
 127 133 0 +.15 .0835 .015 0 0 1 1 0 0 .00515 16 132 603 134 ?135 136 129 130 0
 0 1 31 133 610 0 136 130 137 0 +.15 .0835 .009 0 0 1 -1 0 0 .0031 16 136 608 0
 ?138 139 132 133 0 0 1 31 137 614 0 139 133 140 0 +0 .0835 .009 0 0 1 1 0 0 .00
515 16 139 612 0 ?141 142 136 137 0 0 1 31 140 618 0 142 137 143 0 +0 .0835 .015
 0 0 1 1 0 0 .00515 16 142 616 144 ?145 146 139 140 0 0 1 31 143 623 0 146 140 1
47 0 +0 .0835 .009 0 0 1 -1 0 0 .0031 16 146 621 0 ?148 149 142 143 0 0 1 31 147
 627 0 149 143 150 0 --.15 .0835 0 0 0 -1 1 0 0 .0031 16 149 625 0 ?151 26 146 1
47 0 0 1 31 150 631 0 26 147 27 0 -.15 .0835 0 0 0 -1 1 0 0 .0031 16 26 629 0 ?1
52 9 149 150 0 0 1 31 27 635 0 9 150 21 0 -0 .0835 0 0 0 -1 1 0 0 .0031 31 21 81
3 0 153 27 6 0 +-.2425 -584155213282744e-31 .009 0 0 -1 -1 0 0 .0031 16 153 875
 0 ?154 20 155 21 0 0 1 17 154 0 156 154 154 0 157 153 0 0 +16 20 839 0 ?158 159
 153 6 0 0 1 16 155 840 0 ?160 153 161 162 0 0 1 17 160 0 163 160 160 0 164 155
 0 0 +16 161 876 0 ?165 155 166 167 0 0 1 31 162 925 0 155 168 167 0 +.2425 -918
485099360516e-33 .009 0 0 -1 1 0 0 .00515 31 168 997 0 169 170 162 0 +.21 .051 0
 0 0 1 1 0 0 .004283 31 167 924 0 161 162 171 0 +-.2425 -603138548580071e-31 .00
9 0 0 -1 1 0 0 .00515 31 171 923 0 166 167 172 0 +.2425 -918485099360516e-33 .01
5 0 0 -1 1 0 0 .00515 16 166 841 173 ?174 161 175 171 0 0 1 31 172 922 0 175 171
 176 0 +-.2425 -603138548580071e-31 .015 0 0 -1 1 0 0 .00515 16 175 878 177 ?178
 166 169 172 0 0 1 31 176 801 0 159 172 179 0 --.2425 -584155213282744e-31 0 0 0
 1 1 0 0 .0031 16 159 765 0 ?180 181 20 176 0 0 1 31 179 739 0 181 176 182 0 -.2
425 979847998678129e-33 0 0 0 1 1 0 0 .0031 16 181 703 0 ?183 184 159 179 0 0 1
 31 182 452 0 185 179 186 0 +.15 -.0835 .009 0 0 -1 1 0 0 .00515 16 185 359 0 ?1
87 115 188 182 0 0 1 31 186 451 0 188 182 189 0 +-.15 -.0835 .009 0 0 -1 1 0 0 .
00515 16 188 395 0 ?190 185 191 186 0 0 1 31 189 450 0 115 186 192 0 +0 -.0835 .
009 0 0 -1 1 0 0 .00515 16 115 323 0 ?193 111 185 189 0 0 1 31 192 449 0 194 189
 195 0 +.15 -.0835 .015 0 0 -1 1 0 0 .00515 16 194 361 196 ?197 191 184 192 0 0
 1 31 195 448 0 184 192 84 0 +-.15 -.0835 .015 0 0 -1 1 0 0 .00515 16 184 397 19
8 ?199 194 181 195 0 0 1 31 84 447 0 191 195 73 0 +0 -.0835 .015 0 0 -1 1 0 0 .0
0515 16 191 324 200 ?201 188 194 84 0 0 1 81 1 200 326 202 191 0 0 95 196 203 17
 201 0 204 201 201 0 205 191 0 0 +15 204 315 0 201 67 206 17 205 0 207 205 205 0
 201 191 0 0 -15 207 350 0 205 208 0 14 255 208 344 209 ?210 211 212 4 213 +0 0
 210 211 24 81 2 209 1071 214 208 215 0 216 217 218 219 14 210 374 217 ?220 208
 221 4 222 -0 0 220 208 24 14 211 338 216 ?208 223 224 4 225 -0 0 208 223 24 15
 212 349 0 193 208 207 51 213 437 0 208 225 226 0 -0 -.0835 .009 0 0 1 .00515 1
 0 0 13 24 3 0 0 0 0 0 0 8 17 14 17 577 227 ?228 0 229 4 5 +0 0 228 0 24 81 2 22
7 1014 214 17 230 0 231 232 233 234 14 228 568 232 ?235 17 236 4 19 +0 0 235 17
 24 15 229 584 0 148 17 237 17 148 0 229 148 148 0 238 146 0 0 +15 237 585 0 239
 17 0 17 239 0 237 239 239 0 25 9 0 0 -17 25 0 240 25 25 0 239 9 0 0 +15 240 502
 0 25 241 242 14 241 35 243 ?244 67 245 4 246 -0 0 244 67 24 15 242 131 0 247 24
1 248 17 247 0 242 247 247 0 110 97 0 0 -15 248 124 0 249 241 250 17 249 0 248 2
49 249 0 108 105 0 0 -15 250 117 0 251 241 252 17 251 0 250 251 251 0 104 102 0
 0 -15 252 36 0 253 241 0 17 253 0 252 57 43 22 96 89 0 0 -17 57 0 252 51 253 46
 54 58 0 0 -17 43 0 252 253 51 41 45 76 0 63 -17 96 0 254 72 59 41 253 89 0 0 +1
5 254 72 0 96 255 0 17 72 0 254 70 96 55 63 77 0 0 -17 59 0 254 96 70 22 36 82 0
 253 +17 70 0 254 59 72 10 32 71 0 0 -17 36 0 56 34 54 10 59 82 0 70 -15 56 66 0
 54 256 0 17 34 0 56 53 36 29 28 35 0 0 -17 53 0 56 54 34 46 49 78 0 57 +14 256
 67 257 ?67 80 56 4 258 -0 0 67 80 24 81 2 257 1050 214 256 259 0 260 261 262 26
3 14 67 26 261 ?241 256 264 4 265 +0 0 241 256 24 14 80 69 260 ?256 75 48 4 266
 -0 0 256 75 24 50 255 258 74 0 256 246 266 0 +-.25 -.091 .015 1110223024625156e
-31 1 0 -1 1110223024625156e-31 0 50 246 53 0 241 265 258 0 +0 0 0 0 0 1 1 0 0 5
0 266 75 0 80 258 267 0 +-.25 .091 .015 1 0 0 0 0 -1 50 267 76 0 75 266 268 0 +.
25 .091 .015 -1110223024625156e-31 -1 0 1 -1110223024625156e-31 0 14 75 71 269 ?
80 255 62 4 267 -0 0 80 255 24 50 268 77 0 255 267 270 0 +.25 -.091 .015 -1 0 0
 0 0 1 14 255 73 271 ?75 272 254 4 268 -0 0 75 272 24 51 270 507 0 272 268 273 0
 --.15 .0835 .009 0 0 1 .00515 1 0 0 14 272 505 274 ?255 275 276 4 270 +0 0 255
 275 24 50 273 516 0 275 270 277 0 +-.15 .0835 .009 0 0 -1 -1 0 0 14 275 514 278
 ?272 279 280 4 273 -0 0 272 279 24 51 277 525 0 279 273 281 0 -.15 .0835 .009 0
 0 1 .00515 1 0 0 14 279 523 282 ?275 283 284 4 277 +0 0 275 283 24 50 281 534 0
 283 277 285 0 +.15 .0835 .009 0 0 -1 -1 0 0 14 283 532 286 ?279 287 288 4 281 -
0 0 279 287 24 51 285 543 0 287 281 289 0 -0 .0835 .009 0 0 1 .00515 1 0 0 14 28
7 541 290 ?283 291 292 4 285 +0 0 283 291 24 50 289 552 0 291 285 293 0 +0 .0835
 .009 0 0 -1 -1 0 0 14 291 550 294 ?287 235 295 4 289 -0 0 287 235 24 51 293 561
 0 235 289 19 0 --.15 .0835 -.135877668082597 0 0 1 .0031 1 0 0 14 235 559 296 ?
291 228 297 4 293 +0 0 291 228 24 51 19 570 0 228 293 5 0 -.15 .0835 -.135877668
082597 0 0 1 .0031 1 0 0 81 2 296 1020 214 235 298 0 232 294 299 300 15 297 566
 0 128 235 301 17 128 0 297 128 128 0 302 126 0 0 +15 301 567 0 303 235 0 17 303
 0 301 303 303 0 151 149 0 0 -17 151 0 304 151 151 0 303 149 0 0 +15 304 504 0 1
51 241 305 15 305 503 0 152 241 240 17 152 0 305 152 152 0 306 26 0 0 +17 306 0
 307 306 306 0 152 26 0 0 -15 307 576 0 306 228 0 17 302 0 280 302 302 0 128 126
 0 0 -15 280 521 0 302 275 308 15 308 522 0 121 275 0 17 121 0 308 121 121 0 309
 101 0 0 +17 309 0 276 309 309 0 121 101 0 0 -15 276 512 0 309 272 310 15 310 51
3 0 125 272 0 17 125 0 310 125 125 0 311 122 0 0 +17 311 0 312 311 311 0 125 122
 0 0 -15 312 501 0 311 67 313 15 313 500 0 314 67 315 17 314 0 313 314 314 0 135
 132 0 0 -15 315 499 0 316 67 204 17 316 0 315 316 316 0 145 142 0 0 -17 145 0 3
17 145 145 0 316 142 0 0 +15 317 549 0 145 287 0 17 135 0 318 135 135 0 314 132
 0 0 +15 318 531 0 135 279 0 80 7 CCCCCDI12 legal_owners0 17 1 lCZ2 214 319 320
 8014 0 0 0 0 3 5 0 0 0 FFFFTFFFFFFFFFFFF2 1 81 1 298 1019 321 235 322 296 323 3
24 325 81 2 232 1017 214 228 323 0 227 296 326 327 81 2 294 1023 214 291 324 0 2
96 290 328 329 83 255 1 299 0 82 255 1 300 0 81 1 324 1022 321 291 330 294 298 3
31 332 81 2 290 1026 214 287 331 0 294 286 333 334 83 1 328 0 82 1 329 0 81 1 33
1 1025 321 287 335 290 324 336 337 81 2 286 1029 214 283 336 0 290 282 338 339 8
3 1 333 0 82 1 334 0 81 1 336 1028 321 283 340 286 331 341 342 81 2 282 1032 214
 279 341 0 286 278 343 344 83 1 338 0 82 1 339 0 81 1 341 1031 321 279 345 282 3
36 346 347 81 2 278 1035 214 275 346 0 282 274 348 349 83 1 343 0 82 1 344 0 81
 1 346 1034 321 275 350 278 341 351 352 81 2 274 1038 214 272 351 0 278 271 353
 354 83 1 348 0 82 1 349 0 81 1 351 1037 321 272 355 274 346 356 357 81 2 271 10
41 214 255 356 0 274 269 358 359 83 1 353 0 82 1 354 0 81 1 356 1040 321 255 360
 271 351 361 362 81 2 269 1044 214 75 361 0 271 260 363 364 83 1 358 0 82 1 359
 0 81 1 361 1043 321 75 365 269 356 366 367 81 2 260 1047 214 80 366 0 269 257 3
68 369 83 1 363 0 82 1 364 0 81 1 366 1046 321 80 370 260 361 259 371 83 1 368 0
 82 1 369 0 80 1 321 214 372 8015 0 0 0 0 3 5 0 0 0 FFFFTFFFFFFFFFFFF2 81 1 370
 1045 373 80 374 366 365 375 376 81 1 259 1049 321 256 375 257 366 377 378 83 1
 371 0 81 1 375 1048 373 256 379 259 370 380 381 81 1 377 1052 321 67 380 261 25
9 382 383 83 1 378 0 81 1 380 1051 373 67 384 377 375 385 386 81 2 261 1053 214
 67 377 0 257 243 387 388 81 1 382 1055 321 241 385 243 377 389 390 83 1 383 0 8
1 1 385 1054 373 241 391 382 380 392 393 81 2 243 1056 214 241 382 0 261 394 395
 396 81 1 389 1058 321 244 392 394 382 397 398 83 1 390 0 14 244 240 394 ?399 24
1 400 4 401 +0 0 399 241 24 81 1 392 1057 373 244 402 389 385 403 404 81 2 394 1
059 214 244 389 0 243 405 406 407 81 1 397 1061 321 399 403 405 389 408 409 83 1
 398 0 14 399 210 405 ?223 244 410 4 411 +0 0 223 244 24 81 1 403 1060 373 399 4
12 397 392 413 414 81 2 405 1062 214 399 397 0 394 415 416 417 81 1 408 1064 321
 223 413 415 397 418 419 83 1 409 0 14 223 175 415 ?211 399 420 4 421 +0 0 211 3
99 24 81 1 413 1063 373 223 422 408 403 423 424 81 2 415 1065 214 223 408 0 405
 216 425 426 81 1 418 1067 321 211 423 216 408 215 427 83 1 419 0 81 1 423 1066
 373 211 428 418 413 429 430 81 2 216 1068 214 211 418 0 415 209 431 432 81 1 21
5 1070 321 208 429 209 418 433 434 83 1 427 0 81 1 429 1069 373 208 435 215 423
 436 437 81 1 433 1073 321 210 436 217 215 438 439 83 1 434 0 81 1 436 1072 373
 210 440 433 429 441 442 81 2 217 1074 214 210 433 0 209 443 444 445 81 1 438 10
76 321 220 441 443 433 446 447 83 1 439 0 14 220 386 443 ?448 210 449 4 226 +0 0
 448 210 24 81 1 441 1075 373 220 450 438 436 451 452 81 2 443 1077 214 220 438
 0 217 453 454 455 81 1 446 1079 321 448 451 453 438 456 457 83 1 447 0 14 448 4
10 453 ?458 220 459 4 460 -0 0 458 220 24 81 1 451 1078 373 448 461 446 441 462
 463 81 2 453 1080 214 448 446 0 443 464 465 466 81 1 456 1082 321 458 462 464 4
46 467 468 83 1 457 0 14 458 422 464 ?469 448 470 4 471 +0 0 469 448 24 81 1 462
 1081 373 458 472 456 451 473 474 81 2 464 1083 214 458 456 0 453 475 476 477 81
 1 467 1085 321 469 473 475 456 478 479 83 1 468 0 14 469 717 475 ?480 458 481 4
 482 +0 0 480 458 24 81 1 473 1084 373 469 483 467 462 484 485 81 2 475 1086 214
 469 467 0 464 486 487 488 81 1 478 1088 321 480 484 486 467 489 490 83 1 479 0
 14 480 779 486 ?491 469 492 4 493 +0 0 491 469 24 81 1 484 1087 373 480 494 478
 473 495 496 81 2 486 1089 214 480 478 0 475 497 498 499 81 1 489 1091 321 491 4
95 497 478 500 501 83 1 490 0 14 491 891 497 ?502 480 156 4 503 -0 0 502 480 24
 81 1 495 1090 373 491 504 489 484 505 506 81 2 497 1092 214 491 489 0 486 507 5
08 509 81 1 500 1094 321 502 505 507 489 510 511 83 1 501 0 14 502 903 507 ?512
 491 513 4 514 +0 0 512 491 24 81 1 505 1093 373 502 515 500 495 516 517 81 2 50
7 1095 214 502 500 0 497 518 519 520 81 1 510 1097 321 512 516 518 500 521 522 8
3 1 511 0 14 512 855 518 ?523 502 524 4 525 -0 0 523 502 24 81 1 516 1096 373 51
2 526 510 505 527 528 81 2 518 1098 214 512 510 0 507 529 530 531 81 1 521 1100
 321 523 527 529 510 0 532 83 1 522 0 14 523 861 529 ?533 512 163 4 534 +0 0 533
 512 24 81 1 527 1099 373 523 535 521 516 0 536 81 2 529 1101 214 523 521 0 518
 0 537 538 83 1 532 0 83 1 537 0 82 1 538 0 80 1 373 0 539 8001 0 0 0 0 3 5 0 0
 0 FFFFTFTFFFFFFFFFF2 81 1 535 938 540 523 541 527 526 384 0 83 3 536 .505882382
392883 .529411792755127 .549019634723663 80 1 540 202 542 9000 1 1 1 1 1 1 1 1 0
 FFFFTFTTFFFFFFFFF1 81 1 541 862 543 523 544 535 545 546 547 81 1 526 937 540 51
2 545 516 515 535 0 81 1 384 1004 540 67 548 380 535 391 0 81 1 548 87 543 67 54
9 384 0 550 551 81 1 391 1005 540 241 550 385 384 552 0 81 1 550 90 543 241 553
 391 548 554 555 81 1 552 1006 540 533 556 557 391 0 0 14 533 975 231 ?0 523 558
 4 559 -0 0 0 523 24 81 5 556 1002 560 533 561 552 0 0 562 563 564 565 566 81 1
 557 1008 567 533 552 568 0 0 569 80 1 567 570 571 9000 0 0 0 0 3 5 0 0 0 FFTTTT
TTFFFFTFFFF1 81 1 568 1009 373 533 557 572 0 573 574 82 5 569 2 -2147483598 0 0
 0 81 1 572 1010 321 533 568 231 0 230 575 81 1 573 1012 373 17 576 230 568 577
 578 83 3 574 .184313729405403 .749019622802734 .580392181873322 81 1 576 665 54
0 17 579 573 472 580 0 81 1 230 1013 321 17 573 227 572 323 581 81 1 577 1015 37
3 228 580 323 573 322 582 83 3 578 .505882382392883 .529411792755127 .5490196347
23663 81 1 580 666 540 228 583 577 576 584 0 81 1 323 1016 321 228 577 232 230 2
98 585 81 1 322 1018 373 235 584 298 577 330 586 83 3 582 .505882382392883 .5294
11792755127 .549019634723663 81 1 584 667 540 235 587 322 580 588 0 81 1 330 102
1 373 291 588 324 322 335 589 83 3 586 .505882382392883 .529411792755127 .549019
634723663 81 1 588 668 540 291 590 330 584 591 0 81 1 335 1024 373 287 591 331 3
30 340 592 83 3 589 .505882382392883 .529411792755127 .549019634723663 81 1 591
 669 540 287 593 335 588 594 0 81 1 340 1027 373 283 594 336 335 345 595 83 3 59
2 .505882382392883 .529411792755127 .549019634723663 81 1 594 670 540 283 596 34
0 591 597 0 81 1 345 1030 373 279 597 341 340 350 598 83 3 595 .505882382392883
 .529411792755127 .549019634723663 81 1 597 671 540 279 599 345 594 600 0 81 1 3
50 1033 373 275 600 346 345 355 601 83 3 598 .505882382392883 .529411792755127 .
549019634723663 81 1 600 672 540 275 602 350 597 603 0 81 1 355 1036 373 272 603
 351 350 360 604 83 3 601 .505882382392883 .529411792755127 .549019634723663 81
 1 603 673 540 272 605 355 600 483 0 81 1 360 1039 373 255 606 356 355 365 607 8
3 3 604 .505882382392883 .529411792755127 .549019634723663 81 1 606 108 540 255
 608 360 0 609 0 81 1 365 1042 373 75 609 361 360 370 610 83 3 607 .505882382392
883 .529411792755127 .549019634723663 81 1 609 109 540 75 611 365 606 374 0 83 3
 610 .505882382392883 .529411792755127 .549019634723663 81 1 611 102 543 75 612
 609 613 608 614 81 1 374 110 540 80 613 370 609 379 0 81 1 613 98 543 80 615 37
4 554 611 616 81 1 379 111 540 256 554 375 374 402 0 81 1 554 94 543 256 617 379
 550 613 618 81 1 402 463 540 244 619 392 379 412 0 81 3 619 224 620 244 621 402
 622 623 624 625 0 81 1 412 464 540 399 622 403 402 422 0 81 3 622 194 620 399 6
26 412 627 619 628 629 0 81 1 422 465 540 223 627 413 412 428 0 81 3 627 164 620
 223 630 422 631 622 632 633 0 81 1 428 466 540 211 634 423 422 435 0 81 1 634 3
39 543 211 623 428 621 635 636 81 1 435 467 540 208 635 429 428 440 0 81 1 635 3
45 543 208 637 435 634 638 639 81 1 440 468 540 210 638 436 435 450 0 81 1 638 3
75 543 210 640 440 635 641 642 81 1 450 469 540 220 641 441 440 461 0 81 1 641 3
87 543 220 643 450 638 644 645 81 1 461 470 540 448 644 451 450 472 0 81 1 644 4
11 543 448 646 461 641 647 648 81 1 472 471 540 458 647 462 461 576 0 81 1 647 4
23 543 458 649 472 644 605 650 80 1 543 651 652 9000 0 0 0 0 3 6 0 0 0 FFFFTFFFF
FFFFFFFF1 81 3 649 426 620 458 0 647 646 653 654 655 0 81 1 605 639 543 272 653
 603 647 602 656 82 1 650 1127 81 3 653 637 620 272 0 605 649 657 658 659 0 81 1
 602 642 543 275 657 600 605 599 660 82 1 656 1142 81 3 657 640 620 275 0 602 65
3 661 662 663 0 81 1 599 645 543 279 661 597 602 596 664 82 1 660 1142 81 3 661
 643 620 279 0 599 657 665 666 667 0 81 1 596 648 543 283 665 594 599 593 668 82
 1 664 1142 81 3 665 646 620 283 0 596 661 669 670 671 0 81 1 593 651 543 287 66
9 591 596 590 672 82 1 668 1142 81 3 669 649 620 287 0 593 665 673 674 675 0 81
 1 590 654 543 291 673 588 593 587 676 82 1 672 1142 81 3 673 652 620 291 0 590
 669 677 678 679 0 81 1 587 657 543 235 677 584 590 583 680 82 1 676 1142 81 3 6
77 655 620 235 0 587 673 681 682 683 0 81 1 583 660 543 228 681 580 587 579 684
 82 1 680 1142 81 3 681 658 620 228 0 583 677 685 686 687 0 81 1 579 663 543 17
 685 576 583 688 689 82 1 684 1142 81 3 685 661 620 17 0 579 681 690 691 692 0 8
1 1 688 718 543 469 690 483 579 693 694 82 1 689 1142 81 3 690 721 620 469 0 688
 685 695 696 697 0 81 1 483 933 540 469 688 473 603 494 0 81 1 693 780 543 480 6
95 494 688 545 698 82 1 694 1494 81 3 695 783 620 480 0 693 690 699 700 701 0 81
 1 494 934 540 480 693 484 483 504 0 81 1 545 856 543 512 699 526 693 541 702 82
 1 698 1494 81 3 699 858 620 512 0 545 695 544 703 704 0 82 1 702 1600 80 3 620
 705 706 9000 0 0 0 0 3 6 0 0 0 FFFFTFTTFFFFFFFFF1 1 3 81 3 544 865 620 523 0 54
1 699 707 708 709 0 82 1 703 0 82 1 704 32 81 3 707 894 620 491 0 546 544 710 71
1 712 0 82 1 708 0 82 1 709 34 81 1 546 892 543 491 707 504 541 713 714 81 3 710
 907 620 502 0 713 707 715 716 717 0 82 1 711 0 82 1 712 32 81 1 713 904 543 502
 710 515 546 561 718 81 3 715 979 620 533 0 561 710 0 719 720 0 82 1 716 0 82 1
 717 35 81 1 561 976 543 533 715 556 713 0 721 82 1 719 0 82 1 720 38 82 1 721 1
647 81 1 515 936 540 502 713 505 504 526 0 82 1 718 1600 81 1 504 935 540 491 54
6 495 494 515 0 82 1 714 1600 79 255 27 706 MONIKER/MONIKER_DATA_ATTRIB82 1 700
 0 82 1 701 31 82 1 696 0 82 1 697 30 82 1 691 0 82 1 692 27 82 1 686 0 82 1 687
 26 82 1 682 0 82 1 683 25 82 1 678 0 82 1 679 24 82 1 674 0 82 1 675 23 82 1 67
0 0 82 1 671 22 82 1 666 0 82 1 667 21 82 1 662 0 82 1 663 20 82 1 658 0 82 1 65
9 19 81 3 646 413 620 448 0 644 643 649 722 723 0 82 1 654 0 82 1 655 18 81 3 64
3 390 620 220 0 641 640 646 724 725 0 82 1 722 0 82 1 723 14 81 3 640 377 620 21
0 0 638 637 643 726 727 0 82 1 724 0 82 1 725 17 81 3 637 348 620 208 0 635 623
 640 728 729 0 82 1 726 0 82 1 727 14 81 3 623 341 620 211 0 634 619 637 730 731
 0 82 1 728 0 82 1 729 16 82 1 730 0 82 1 731 14 79 23 652 SolidEdge/MNKR_ATTR_C
ID82 1 648 1127 82 1 645 1127 82 1 642 1127 82 1 639 1127 81 1 621 227 543 244 0
 619 626 634 732 82 1 636 1127 81 1 626 197 543 399 0 622 630 621 733 82 1 732 9
15 81 1 630 167 543 223 0 627 608 626 734 82 1 733 915 81 1 608 106 543 255 631
 606 611 630 735 82 1 734 915 81 3 631 103 620 255 0 608 612 627 736 737 0 82 1
 735 410 81 3 612 99 620 75 0 611 615 631 738 739 0 82 1 736 0 82 1 737 5 81 3 6
15 95 620 80 0 613 617 612 740 741 0 82 1 738 0 82 1 739 4 81 3 617 91 620 256 0
 554 553 615 742 743 0 82 1 740 0 82 1 741 3 81 3 553 88 620 241 0 550 549 617 7
44 745 0 82 1 742 0 82 1 743 2 81 3 549 84 620 67 0 548 0 553 746 747 0 82 1 744
 0 82 1 745 1 82 1 746 0 82 1 747 0 82 1 632 0 82 1 633 11 82 1 628 0 82 1 629 1
2 82 1 624 0 82 1 625 13 82 1 618 410 82 1 616 410 82 1 614 410 83 1 585 0 83 1
 581 0 81 2 231 1011 214 533 572 0 0 227 748 749 83 1 575 0 83 1 748 0 82 1 749
 0 79 16 571 SolidEdge/Styles80 5 560 750 751 9000 2 2 2 2 3 5 0 0 0 FFFFTFFFFFF
FFFFFF1 1 2 10 7 82 1 562 13 82 52 563 0 1 1 3 1 0 3 0 1 0 2 1 2 1 1 1 850 0 1 0
 0 0 0 0 0 0 0 0 0 0 0 0 0 0 0 0 0 0 0 0 0 0 2 1 975 0 0 0 0 0 0 0 83 43 564 .01
02 .0127 .0127 82 .0127 .0127 0 .0508 2 0 10.2 8.566 8.566 .1 0 0 0 .04363323129
985825 .1 1 0 0 0 0 0 0 .0127 8.8 .907 0 0 0 0 0 0 0 0 0 0 0 0 0 0 98 255 4 565
 71 49 47 56 87 255 2 566 .21 .051 .015 0 0 1 79 30 751 SolidEdge/EndHoleThread_
u_info15 558 980 0 752 533 753 51 559 994 0 533 0 525 0 +.21 .051 -.517305363489
792 0 0 1 .004283 1 0 0 50 525 919 0 512 559 503 0 +.2425 -918485099360516e-33 .
009 0 0 -1 -1 0 0 50 503 918 0 491 525 534 0 +-.2425 -603138548580071e-31 .009 0
 0 -1 -1 0 0 51 534 915 0 523 503 514 0 -.2425 -918485099360516e-33 .009 0 0 1 .
00515 1 0 0 51 514 914 0 502 534 493 0 --.2425 -603138548580071e-31 .009 0 0 1 .
00515 1 0 0 51 493 798 0 480 514 482 0 --.2425 -584155213282744e-31 -.5173053634
89792 0 0 1 .0031 1 0 0 51 482 736 0 469 493 222 0 -.2425 979847998678129e-33 -.
517305363489792 0 0 1 .0031 1 0 0 50 222 443 0 210 482 460 0 +.15 -.0835 .009 0
 0 -1 -1 0 0 50 460 442 0 448 222 225 0 +-.15 -.0835 .009 0 0 -1 -1 0 0 50 225 4
41 0 211 460 213 0 +0 -.0835 .009 0 0 -1 -1 0 0 17 752 0 558 752 752 0 754 169 0
 0 -15 753 981 0 755 533 0 17 755 0 753 755 755 0 756 757 0 0 +17 756 0 264 756
 756 0 755 757 0 0 -16 757 964 758 ?755 169 0 170 0 0 1 81 1 758 967 202 757 0 0
 177 0 759 16 169 962 0 ?754 175 757 168 0 0 1 31 170 998 0 757 0 168 0 +.21 .05
1 .015 0 0 1 1 0 0 .004283 17 754 0 245 754 754 0 752 169 0 0 +15 245 940 0 754
 241 760 15 760 745 0 761 241 762 17 761 0 760 761 761 0 180 159 0 0 -15 762 683
 0 763 241 304 17 763 0 762 763 763 0 183 181 0 0 -17 183 0 764 183 183 0 763 18
1 0 0 +15 764 722 0 183 469 0 17 180 0 765 180 180 0 761 159 0 0 +15 765 784 0 1
80 480 0 80 1 202 766 767 9000 0 0 0 0 3 6 0 0 0 FFFFTFTTFFFFFFFFF1 81 1 177 880
 202 175 0 0 173 758 768 82 1 759 17 81 1 173 843 202 166 0 0 144 177 769 82 1 7
68 17 81 1 144 620 202 142 0 0 134 173 770 82 1 769 17 81 1 134 607 202 132 0 0
 124 144 771 82 1 770 17 81 1 124 594 202 122 0 0 198 134 772 82 1 771 17 81 1 1
98 399 202 184 0 0 196 124 773 82 1 772 17 81 1 196 363 202 194 0 0 200 198 774
 82 1 773 17 82 1 774 17 79 27 767 SolidEdge/MNKR_ATTR_TYPE_EX15 264 948 0 756 6
7 775 15 775 832 0 174 67 776 17 174 0 775 174 174 0 777 166 0 0 +15 776 825 0 1
78 67 312 17 178 0 776 178 178 0 778 175 0 0 +17 778 0 779 778 778 0 178 175 0 0
 -15 779 909 0 778 502 0 17 777 0 780 777 777 0 174 166 0 0 -15 780 867 0 777 52
3 0 82 1 555 410 82 1 551 410 82 1 547 1600 79 17 542 SolidEdge/Display79 15 539
 SDL/TYSA_COLOUR15 163 866 0 160 523 780 83 1 530 0 82 1 531 0 83 3 528 .5058823
82392883 .529411792755127 .549019634723663 15 524 859 0 158 512 781 17 158 0 524
 158 158 0 782 20 0 0 +15 781 860 0 164 512 0 17 164 0 781 164 164 0 160 155 0 0
 -17 782 0 481 782 782 0 158 20 0 0 -15 481 819 0 782 469 764 83 1 519 0 82 1 52
0 0 83 3 517 .505882382392883 .529411792755127 .549019634723663 15 513 908 0 165
 502 779 17 165 0 513 165 165 0 783 161 0 0 +17 783 0 784 783 783 0 165 161 0 0
 -15 784 896 0 783 491 0 83 1 508 0 82 1 509 0 83 3 506 .505882382392883 .529411
792755127 .549019634723663 15 156 895 0 154 491 784 83 1 498 0 82 1 499 0 83 3 4
96 .505882382392883 .529411792755127 .549019634723663 15 492 812 0 157 480 765 1
7 157 0 492 157 157 0 154 153 0 0 -83 1 487 0 82 1 488 0 83 3 485 .5058823823928
83 .529411792755127 .549019634723663 83 1 476 0 82 1 477 0 83 3 474 .50588238239
2883 .529411792755127 .549019634723663 15 470 427 0 190 458 785 51 471 435 0 458
 226 421 0 --.15 -.0835 .009 0 0 1 .00515 1 0 0 51 226 436 0 220 213 471 0 -.15
 -.0835 .009 0 0 1 .00515 1 0 0 51 421 255 0 223 471 411 0 -0 -.0835 -.135877668
082597 0 0 1 .0031 1 0 0 51 411 254 0 399 421 401 0 -.15 -.0835 -.13587766808259
7 0 0 1 .0031 1 0 0 51 401 253 0 244 411 265 0 --.15 -.0835 -.135877668082597 0
 0 1 .0031 1 0 0 50 265 29 0 67 401 246 0 +0 0 .015 0 0 1 1 0 0 17 190 0 470 190
 190 0 786 188 0 0 +15 785 428 0 787 458 0 17 787 0 785 787 787 0 199 184 0 0 -1
7 199 0 788 199 199 0 787 184 0 0 +15 788 301 0 199 67 31 17 786 0 789 786 786 0
 190 188 0 0 -15 789 415 0 786 448 0 83 1 465 0 82 1 466 0 83 3 463 .50588238239
2883 .529411792755127 .549019634723663 15 459 414 0 119 448 789 17 119 0 459 119
 119 0 790 106 0 0 +17 790 0 400 790 790 0 119 106 0 0 -15 400 295 0 790 244 791
 15 791 229 0 104 244 0 17 104 0 791 104 104 0 251 102 0 0 +83 1 454 0 82 1 455
 0 83 3 452 .505882382392883 .529411792755127 .549019634723663 15 449 391 0 187
 220 792 17 187 0 449 187 187 0 793 185 0 0 +15 792 392 0 794 220 0 17 794 0 792
 794 794 0 197 194 0 0 -17 197 0 206 197 197 0 794 194 0 0 +15 206 308 0 197 67
 788 17 793 0 795 793 793 0 187 185 0 0 -15 795 379 0 793 210 0 83 1 444 0 82 1
 445 0 83 3 442 .505882382392883 .529411792755127 .549019634723663 83 3 437 .505
882382392883 .529411792755127 .549019634723663 83 1 431 0 82 1 432 0 83 3 430 .5
05882382392883 .529411792755127 .549019634723663 83 1 425 0 82 1 426 0 83 3 424
 .505882382392883 .529411792755127 .549019634723663 15 420 281 0 796 223 797 17
 796 0 420 796 796 0 113 111 0 0 -15 797 169 0 110 223 0 17 110 0 797 110 110 0
 247 97 0 0 +17 113 0 224 113 113 0 796 111 0 0 +15 224 342 0 113 211 798 15 798
 343 0 799 211 0 17 799 0 798 799 799 0 193 115 0 0 -17 193 0 212 193 193 0 799
 115 0 0 +83 1 416 0 82 1 417 0 83 3 414 .505882382392883 .529411792755127 .5490
19634723663 15 410 288 0 800 399 801 17 800 0 410 800 800 0 117 114 0 0 -15 801
 199 0 108 399 0 17 108 0 801 108 108 0 249 105 0 0 +17 117 0 221 117 117 0 800
 114 0 0 +15 221 378 0 117 210 795 83 1 406 0 82 1 407 0 83 3 404 .5058823823928
83 .529411792755127 .549019634723663 83 1 395 0 82 1 396 0 83 3 393 .50588238239
2883 .529411792755127 .549019634723663 83 1 387 0 82 1 388 0 83 3 386 .505882382
392883 .529411792755127 .549019634723663 83 3 381 .505882382392883 .529411792755
127 .549019634723663 83 3 376 .505882382392883 .529411792755127 .549019634723663
 79 21 372 SDL/TYSA_TRANSLUCENCY83 1 367 0 83 1 362 0 83 1 357 0 83 1 352 0 83 1
 347 0 83 1 342 0 83 1 337 0 83 1 332 0 83 1 326 0 82 1 327 0 83 1 325 0 79 21 3
20 SDL/TYSA_REFLECTIVITY15 295 557 0 238 291 802 17 238 0 295 238 238 0 148 146
 0 0 -15 802 558 0 141 291 0 17 141 0 802 141 141 0 803 139 0 0 +17 803 0 292 80
3 803 0 141 139 0 0 -15 292 548 0 803 287 317 15 288 539 0 804 283 805 17 804 0
 288 804 804 0 138 136 0 0 -15 805 540 0 131 283 0 17 131 0 805 131 131 0 806 12
9 0 0 +17 806 0 284 806 806 0 131 129 0 0 -15 284 530 0 806 279 318 17 138 0 236
 138 138 0 804 136 0 0 +15 236 575 0 138 228 307 83 1 262 0 82 1 263 0 17 63 0 6
2 45 60 41 72 77 0 96 +17 51 0 252 43 57 44 47 52 0 0 -83 1 233 0 82 1 234 0 83
 1 218 0 82 1 219 0 81 1 95 48 202 89 0 0 88 200 807 82 1 203 17 81 1 88 45 202
 76 0 0 91 95 808 82 1 807 17 81 1 91 42 202 52 0 0 93 88 809 82 1 808 17 81 1 9
3 39 202 58 0 0 0 91 810 82 1 809 17 82 1 810 17 19 18 83 0 1 0 8 4 0 S0 74 4 CI
16 index_map_offset0 0 1 dCCZ20 16 11 0 0 758 715 561 552 12 556 2 557 527 521 5
29 0 0 0 0 0 0 0 0 0 81 2 12 114 811 1 0 2 0 0 812 813 80 2 811 11 814 9000 2 2
 2 2 3 6 0 0 0 FFTFFFFFFFFFFFFFF2 3 83 2 812 1 10 84 255 21 813 SE 224.0.0.101 T
ype8679 22 814 MONIKER/BODY_ID_ATTRIB80 3 11 815 816 9000 0 0 0 0 3 6 0 0 0 FFTF
FFFFFFFFFFFFF3 3 1 84 38 13 {75b9fc27-bb7b-4902-8f28-3e97ae227297}84 2 14 SE82 1
 15 0 79 25 816 MONIKER/GUID_TABLE_ATTRIB1 0 
